<?xml version="1.0" encoding="UTF-8"?>
<svg version="1.1" viewBox="0 0 600 400" xmlns="http://www.w3.org/2000/svg">
<title>Programming Languages</title>
<g fill="none" fill-rule="evenodd">
<g fill-rule="nonzero">
<path id="&lt;Path&gt;" d="m573.39 205.36c4.4209 8.3509 10.987 15.018 15.993 22.947 12.938 20.772 13.263 48.561 5.2011 72-4.5509 13.123-11.507 25.123-19.634 36-6.3063 8.2807-14.628 21.263-24.38 22.947-18.724 3.2281-40.373 0-59.292 0h-87.118-113.12v4.7018c-42.475 0.5614-84.972 1.1462-127.49 1.7544-17.619 0.21053-35.627 0.2807-53.181-0.63158-18.529-1.0526-36.928-5.8246-53.831-14.175-9.622-4.7719-18.984-10.807-25.875-19.509-6.8914-8.7719-11.117-20.421-9.3619-31.719 1.4303-9.2632 6.6314-18.316 4.2909-27.298-1.6253-6.3158-6.5663-10.807-10.597-15.719-14.823-18.175-17.684-45.053-12.808-68.702 4.6159-22.526 15.928-40.491 24.9-60.912 4.4859-10.175 11.377-19.86 16.578-29.614 6.2413-11.789 15.668-22.596 24.315-32.351 17.684-19.86 38.553-36.702 61.893-48 27.631-13.404 58.902-18.807 88.873-13.754 29.711 4.9123 55.651 24.491 85.818 27.579 20.414 2.1053 40.568-4.7719 60.137-11.228 31.076-10.316 62.868-20.211 95.374-19.649 32.507 0.5614 66.314 12.912 86.793 40.14 10.792 14.316 12.353 29.895 18.009 46.246 6.1763 17.895 6.4363 34.947 4.2259 53.825-1.8854 16.351-4.2259 33.825-1.1052 49.614 1.1052 5.4035 2.7956 10.596 5.3961 15.509z" fill="#DDE3E9" opacity=".52053"/>
<g id="编组" transform="translate(120.84 151.17) rotate(2) translate(-25.263 -25.263)">
<path id="矩形" transform="translate(25.263 25.263) rotate(-9) translate(-25.263 -25.263)" d="m12.305 3.1823h25.916c5.0384 0 9.1228 4.0844 9.1228 9.1228v25.916c0 5.0384-4.0844 9.1228-9.1228 9.1228h-25.916c-5.0384 0-9.1228-4.0844-9.1228-9.1228v-25.916c0-5.0384 4.0844-9.1228 9.1228-9.1228z" fill="#fff"/>
<g transform="translate(24.578 24.539) rotate(-9) translate(-10.526 -6.2484)" fill="#89C5CC">
<path id="路径" d="m5.6421-3.9298e-16c-1.7684 0-3.1663 0.62316-4.1937 1.8863-0.97684 1.1621-1.4484 2.6274-1.4484 4.4126 0 1.7853 0.48842 3.2505 1.4653 4.3789 1.0442 1.2126 2.5263 1.8189 4.4295 1.8189 0.99368 0 1.92-0.13474 2.7958-0.40421 0.82526-0.26947 1.5326-0.62316 2.1053-1.0947v-4.9179h-5.1368v1.1958h3.7726v3.0653c-0.42105 0.26947-0.92632 0.50526-1.5158 0.67368-0.60632 0.16842-1.2295 0.26947-1.8863 0.26947-1.5663 0-2.7453-0.47158-3.5368-1.3979-0.74105-0.87579-1.1116-2.0716-1.1116-3.5874 0-1.5495 0.37053-2.7789 1.1453-3.6884 0.77474-0.92632 1.8021-1.3811 3.1158-1.3811 1.0611 0 1.92 0.25263 2.5768 0.77474 0.62316 0.48842 1.0274 1.1789 1.2126 2.0884h1.3811c-0.21895-1.3137-0.74105-2.3074-1.5832-2.9979-0.89263-0.74105-2.0884-1.0947-3.5874-1.0947z"/>
<path id="形状" d="m16.825 3.3179c-1.3137 0-2.3411 0.43789-3.1158 1.3474-0.74105 0.85895-1.1116 1.9368-1.1116 3.2505 0 1.2968 0.37053 2.3747 1.1116 3.2168 0.77474 0.90947 1.8021 1.3642 3.1158 1.3642 1.2968 0 2.3411-0.45474 3.1326-1.3642 0.72421-0.84211 1.0947-1.92 1.0947-3.2168 0-1.3137-0.37053-2.3916-1.1116-3.2505-0.77474-0.90947-1.8189-1.3474-3.1158-1.3474zm0 1.1284c0.90947 0 1.6337 0.35368 2.1726 1.0611 0.45474 0.64 0.69053 1.4316 0.69053 2.4084 0 0.94316-0.23579 1.7516-0.69053 2.3916-0.53895 0.70737-1.2632 1.0611-2.1726 1.0611-0.92632 0-1.6505-0.35368-2.1558-1.0611-0.47158-0.64-0.69053-1.4316-0.69053-2.3916 0-0.97684 0.21895-1.7684 0.69053-2.4084 0.50526-0.70737 1.2295-1.0611 2.1558-1.0611z"/>
</g>
</g>
<g id="编组" transform="translate(459.65 53.103) rotate(16) translate(-25.263 -25.263)">
<path id="矩形" transform="translate(25.263 25.263) rotate(-9) translate(-25.263 -25.263)" d="m12.305 3.1823h25.916c5.0384 0 9.1228 4.0844 9.1228 9.1228v25.916c0 5.0384-4.0844 9.1228-9.1228 9.1228h-25.916c-5.0384 0-9.1228-4.0844-9.1228-9.1228v-25.916c0-5.0384 4.0844-9.1228 9.1228-9.1228z" fill="#C1DEE2" opacity=".48258"/>
<g transform="translate(23.962 27.146) rotate(-9) translate(-11.655 -7.7979)" fill="#69A1AC">
<polygon id="路径" points="0.50526 -2.6181e-16 0.50526 1.1958 7.4947 1.1958 1.3277e-15 10.897 1.3277e-15 12.025 9.6674 12.025 9.6674 10.829 1.7853 10.829 9.2632 1.1453 9.2632 -2.6181e-16"/>
<path id="形状" d="m12.244 0.033684c-0.28632 0-0.52211 0.084211-0.72421 0.28632-0.20211 0.16842-0.28632 0.40421-0.28632 0.70737 0 0.28632 0.08421 0.52211 0.28632 0.72421 0.20211 0.18526 0.43789 0.28632 0.72421 0.28632s0.52211-0.10105 0.72421-0.28632c0.20211-0.20211 0.30316-0.43789 0.30316-0.72421 0-0.30316-0.10105-0.53895-0.30316-0.70737-0.20211-0.20211-0.43789-0.28632-0.72421-0.28632zm-0.67368 3.2842v8.7074h1.3474v-8.7074h-1.3474z"/>
<path id="形状" d="m19.032 3.0821c-1.2126 0-2.1726 0.42105-2.88 1.28-0.70737 0.80842-1.0442 1.8358-1.0442 3.1158 0 1.2632 0.33684 2.2905 1.0442 3.0989 0.70737 0.82526 1.6674 1.2463 2.88 1.2463 1.3137 0 2.2905-0.58947 2.9305-1.7516v1.5326c0 1.92-0.87579 2.8968-2.6274 2.8968-0.79158 0-1.3811-0.15158-1.7684-0.43789-0.38737-0.26947-0.64-0.70737-0.74105-1.2968h-1.3474c0.15158 0.94316 0.53895 1.6505 1.1621 2.1221 0.60632 0.47158 1.5158 0.70737 2.6947 0.70737 2.6442 0 3.9747-1.3979 3.9747-4.1768v-8.1011h-1.3474v1.4989c-0.64-1.1621-1.6168-1.7347-2.9305-1.7347zm0.20211 1.1116c0.85895 0 1.5326 0.30316 2.0379 0.94316 0.47158 0.57263 0.70737 1.3642 0.70737 2.3411 0 0.94316-0.23579 1.7179-0.70737 2.3074-0.50526 0.60632-1.1789 0.90947-2.0547 0.90947-0.94316 0-1.6337-0.33684-2.1053-0.97684-0.42105-0.57263-0.62316-1.3305-0.62316-2.24 0-0.97684 0.23579-1.7684 0.70737-2.3411 0.48842-0.64 1.1621-0.94316 2.0379-0.94316z"/>
</g>
</g>
<path id="&lt;Path&gt;" d="m330.72 328.3-6.8772-0.77193 6.8772 0.77193z" fill="#FDCED8"/>
<path id="&lt;Compound-Path&gt;" d="m403.77 26.409c3.5088 0 6.3158 2.8772 6.3158 6.386 0 3.5088-2.807 6.3158-6.3158 6.3158s-6.386-2.807-6.386-6.3158c0-3.5088 2.8772-6.386 6.386-6.386zm0 10.246c2.1754 0 3.8596-1.7544 3.8596-3.8596 0-2.1754-1.6842-3.9298-3.8596-3.9298-2.1754 0-3.9298 1.7544-3.9298 3.9298 0 2.1053 1.7544 3.8596 3.9298 3.8596z" fill="#C1DEE2"/>
<path id="&lt;Compound-Path&gt;" d="m257.11 128.86c3.5088 0 6.3158 2.8772 6.3158 6.386s-2.807 6.3158-6.3158 6.3158-6.386-2.807-6.386-6.3158 2.8772-6.386 6.386-6.386zm0 10.246c2.1754 0 3.8596-1.7544 3.8596-3.8596 0-2.1754-1.6842-3.9298-3.8596-3.9298-2.1754 0-3.9298 1.7544-3.9298 3.9298 0 2.1053 1.7544 3.8596 3.9298 3.8596z" fill="#fff"/>
<path id="&lt;Path&gt;" d="m556.83 300.44h4.0702v-4.0702c0-0.5614 0.42105-0.98246 0.91228-0.98246s0.91228 0.42105 0.91228 0.98246v4.0702h4.0702c0.5614 0 0.98246 0.42105 0.98246 0.91228s-0.42105 0.91228-0.98246 0.91228h-4.0702v4.0702c0 0.5614-0.42105 0.98246-0.91228 0.98246s-0.91228-0.42105-0.91228-0.98246v-4.0702h-4.0702c-0.5614 0-0.98246-0.42105-0.98246-0.91228s0.42105-0.91228 0.98246-0.91228z" fill="#C5CFD6"/>
<path id="&lt;Path&gt;" d="m45.667 145.64 2.8772 2.9474 2.8772-2.9474c0.35088-0.35088 0.91228-0.35088 1.2632 0 0.42105 0.42105 0.42105 0.98246 0 1.3333l-2.8772 2.8772 2.8772 2.8772c0.42105 0.42105 0.42105 0.98246 0 1.3333-0.35088 0.35088-0.91228 0.35088-1.2632 0l-2.8772-2.8772-2.8772 2.8772c-0.42105 0.35088-0.98246 0.35088-1.3333 0-0.35088-0.35088-0.35088-0.91228 0-1.3333l2.8772-2.8772-2.8772-2.8772c-0.35088-0.35088-0.35088-0.91228 0-1.3333 0.35088-0.35088 0.91228-0.35088 1.3333 0z" fill="#69A1AC"/>
<g id="&lt;Group&gt;" transform="translate(26.229 186.27)" fill="#AFB9C5">
<polygon id="&lt;Compound-Path&gt;" points="15.509 0 14.386 2.807 3.5088 2.7368 11.228 10.386 10.035 13.193 0 2.807 1.0526 0.2807"/>
<polygon id="&lt;Compound-Path&gt;" points="21.333 2.386 31.368 12.772 30.316 15.298 15.86 15.579 16.982 12.772 27.86 12.842 20.14 5.193"/>
</g>
<g id="编组" transform="translate(178.04 16.635)">
<path id="矩形" transform="translate(32.116 32.116) rotate(-9) translate(-32.116 -32.116)" d="m17.046 4.0456h30.14c7.1797 0 13 5.8203 13 13v30.14c0 7.1797-5.8203 13-13 13h-30.14c-7.1797 0-13-5.8203-13-13v-30.14c0-7.1797 5.8203-13 13-13z" fill="#C1DEE2" opacity=".48"/>
<g transform="translate(31.803 32.023) rotate(-9) translate(-21.572 -6.4561)" fill="#69A1AC">
<path id="路径" d="m4.7439 1.2912c-1.5439 0-2.7509 0.5193-3.593 1.586-0.77193 0.95439-1.1509 2.1754-1.1509 3.6632 0 1.4877 0.36491 2.6947 1.1228 3.6211 0.82807 1.0246 2.0211 1.5439 3.5789 1.5439 1.0667 0 1.993-0.30877 2.7649-0.91228 0.82807-0.64561 1.3474-1.5579 1.5719-2.7228h-1.1088c-0.19649 0.87018-0.60351 1.5298-1.193 1.9789-0.5614 0.42105-1.2351 0.63158-2.0351 0.63158-1.1789 0-2.0632-0.39298-2.6807-1.1649-0.58947-0.72982-0.87018-1.7263-0.87018-2.9754 0-1.2491 0.29474-2.2456 0.88421-3.0035 0.63158-0.81404 1.5298-1.2211 2.6947-1.2211 0.78596 0 1.4456 0.18246 1.993 0.5614 0.5614 0.39298 0.92632 0.95439 1.0667 1.6842h1.1088c-0.14035-0.99649-0.58947-1.7965-1.3474-2.386-0.75789-0.58947-1.6982-0.88421-2.807-0.88421z"/>
<polygon id="路径" points="15.13 -6.4433e-17 10.147 12.912 11.158 12.912 16.126 -6.4433e-17"/>
<path id="路径" d="m21.979 1.2912c-1.5439 0-2.7509 0.5193-3.593 1.586-0.77193 0.95439-1.1509 2.1754-1.1509 3.6632 0 1.4877 0.36491 2.6947 1.1228 3.6211 0.82807 1.0246 2.0211 1.5439 3.5789 1.5439 1.0667 0 1.993-0.30877 2.7649-0.91228 0.82807-0.64561 1.3474-1.5579 1.5719-2.7228h-1.1088c-0.19649 0.87018-0.60351 1.5298-1.193 1.9789-0.5614 0.42105-1.2351 0.63158-2.0351 0.63158-1.1789 0-2.0632-0.39298-2.6807-1.1649-0.58947-0.72982-0.87018-1.7263-0.87018-2.9754 0-1.2491 0.29474-2.2456 0.88421-3.0035 0.63158-0.81404 1.5298-1.2211 2.6947-1.2211 0.78596 0 1.4456 0.18246 1.993 0.5614 0.5614 0.39298 0.92632 0.95439 1.0667 1.6842h1.1088c-0.14035-0.99649-0.58947-1.7965-1.3474-2.386-0.75789-0.58947-1.6982-0.88421-2.807-0.88421z"/>
<polygon id="路径" points="30.639 4.3368 30.639 7.3965 27.565 7.3965 27.565 8.3509 30.639 8.3509 30.639 11.425 31.593 11.425 31.593 8.3509 34.653 8.3509 34.653 7.3965 31.593 7.3965 31.593 4.3368"/>
<polygon id="路径" points="39.13 4.3368 39.13 7.3965 36.056 7.3965 36.056 8.3509 39.13 8.3509 39.13 11.425 40.084 11.425 40.084 8.3509 43.144 8.3509 43.144 7.3965 40.084 7.3965 40.084 4.3368"/>
</g>
</g>
<g id="&lt;Group&gt;" transform="translate(487.44 53.69)" fill="#89C5CC">
<path id="&lt;Compound-Path&gt;" d="m35.211 92.438c-0.2807-0.21053-0.42105-0.63158-0.21053-0.98246 0.84211-1.3333 1.614-2.7368 2.386-4.2105 0.14035-0.35088 0.5614-0.49123 0.91228-0.2807 0.35088 0.14035 0.49123 0.5614 0.35088 0.91228-0.77193 1.4737-1.614 2.9474-2.4561 4.3509-0.14035 0.21053-0.35088 0.35088-0.5614 0.35088-0.14035 0-0.2807-0.046783-0.42105-0.14035zm4.5614-8.7018c-0.35088-0.14035-0.5614-0.5614-0.42105-0.91228 0.63158-1.4737 1.193-3.0175 1.6842-4.5614 0.14035-0.35088 0.5614-0.5614 0.91228-0.42105 0.35088 0.070175 0.5614 0.49123 0.42105 0.84211-0.49123 1.614-1.0526 3.1579-1.6842 4.7018-0.14035 0.2807-0.35088 0.42105-0.63158 0.42105-0.093567 0-0.18713-0.023392-0.2807-0.070175zm3.2982-9.2632h-0.14035c-0.42105-0.14035-0.63158-0.49123-0.5614-0.91228 0.42105-1.5439 0.70175-3.1579 0.98246-4.7018 0.070175-0.42105 0.42105-0.70175 0.77193-0.63158 0.42105 0.070175 0.63158 0.42105 0.63158 0.84211-0.2807 1.614-0.63158 3.2281-0.98246 4.8421-0.14035 0.35088-0.42105 0.5614-0.70175 0.5614zm1.5439-9.6842h-0.070176c-0.35088-0.070175-0.63158-0.42105-0.63158-0.77193 0.14035-1.614 0.21053-3.2281 0.21053-4.8421 0-0.42105 0.35088-0.70175 0.70175-0.70175 0.42105 0 0.70175 0.2807 0.70175 0.70175 0 1.614-0.070176 3.2982-0.21053 4.9825 0 0.35088-0.35088 0.63158-0.70175 0.63158zm0.070175-9.8246c-0.35088 0-0.70175-0.2807-0.70175-0.63158-0.14035-1.614-0.35088-3.2281-0.5614-4.8421-0.070175-0.35088 0.21053-0.77193 0.5614-0.77193 0.42105-0.070176 0.77193 0.14035 0.84211 0.5614 0.21053 1.614 0.42105 3.2982 0.5614 4.9123 0 0.42105-0.2807 0.70175-0.63158 0.77193h-0.070176zm-2.2456-10.246c-0.23392-0.98246-0.51462-1.9649-0.84211-2.9474-0.14035-0.5614-0.30409-1.1228-0.49123-1.6842-0.14035-0.35088 0.070176-0.77193 0.42105-0.91228s0.77193 0.070176 0.91228 0.42105c0.18713 0.60819 0.37427 1.193 0.5614 1.7544 0.2807 1.0292 0.53801 2.0351 0.77193 3.0175 0.14035 0.42105-0.070175 0.77193-0.49123 0.91228h-0.14035c-0.35088 0-0.63158-0.21053-0.70175-0.5614zm-3.0877-9.193c-0.63158-1.4737-1.3333-2.9474-2.0351-4.3509-0.21053-0.35088-0.070176-0.77193 0.2807-0.98246 0.35088-0.14035 0.77193-0.070176 0.91228 0.2807 0.77193 1.4737 1.4737 2.9474 2.1754 4.4912 0.14035 0.35088-0.070175 0.77193-0.42105 0.91228-0.093567 0.046784-0.18713 0.070175-0.2807 0.070175-0.21053 0-0.49123-0.14035-0.63158-0.42105zm-4.4912-8.5614c-0.84211-1.4035-1.7544-2.7368-2.7368-4-0.2807-0.2807-0.21053-0.77193 0.14035-0.98246 0.2807-0.21053 0.70175-0.14035 0.98246 0.14035 0.98246 1.3333 1.8947 2.6667 2.807 4.0702 0.21053 0.35088 0.14035 0.77193-0.21053 0.98246-0.14035 0.046784-0.25731 0.070176-0.35088 0.070176-0.2807 0-0.49123-0.070176-0.63158-0.2807zm-5.8947-7.7193c-1.0526-1.193-2.1754-2.3158-3.3684-3.4386-0.2807-0.2807-0.35088-0.70175-0.070175-0.98246 0.2807-0.2807 0.70175-0.2807 0.98246-0.070175 1.2632 1.1228 2.386 2.3158 3.5088 3.5789 0.2807 0.2807 0.2807 0.70175-0.070176 0.98246-0.14035 0.093567-0.2807 0.14035-0.42105 0.14035-0.21053 0-0.42105-0.070176-0.5614-0.21053zm-7.0877-6.5965c-1.2632-0.98246-2.5965-1.8947-3.9298-2.807-0.35088-0.21053-0.42105-0.63158-0.21053-0.98246s0.63158-0.42105 0.98246-0.21053c1.4035 0.91228 2.7368 1.8947 4 2.9474 0.35088 0.21053 0.35088 0.63158 0.14035 0.98246-0.14035 0.14035-0.35088 0.21053-0.5614 0.21053-0.14035 0-0.2807-0.046784-0.42105-0.14035zm-8.0702-5.3333c-1.4035-0.77193-2.8772-1.5439-4.3509-2.2456-0.35088-0.21053-0.49123-0.63158-0.2807-0.98246 0.14035-0.35088 0.5614-0.49123 0.91228-0.2807 1.4737 0.70175 2.9474 1.4737 4.4211 2.2456 0.2807 0.21053 0.42105 0.63158 0.21053 0.98246-0.070175 0.21053-0.35088 0.35088-0.5614 0.35088-0.14035 0-0.25731-0.023392-0.35088-0.070175zm-8.4912-4.2105h-0.2807c-1.4737-0.63158-3.0175-1.193-4.5614-1.7544-0.42105-0.14035-0.5614-0.49123-0.42105-0.84211 0.070175-0.42105 0.49123-0.5614 0.84211-0.49123 1.614 0.5614 3.1579 1.1228 4.6316 1.7544 0.35088 0.14035 0.5614 0.5614 0.42105 0.91228-0.14035 0.2807-0.35088 0.42105-0.63158 0.42105z"/>
</g>
<g id="&lt;Group&gt;" transform="translate(124.7 72.006) scale(-1 1) rotate(-36) translate(-22.763 -60.22)" fill="#89C5CC">
<path id="&lt;Compound-Path&gt;" d="m29.807 100.51c-0.14035 0-0.2807-0.070176-0.42105-0.21053-0.35088-0.21053-0.35088-0.70175-0.070175-0.98246 0.98246-1.193 2.0351-2.4561 3.0175-3.7895 0.21053-0.35088 0.63158-0.42105 0.98246-0.14035 0.2807 0.21053 0.35088 0.63158 0.14035 0.98246-0.98246 1.3333-2.0351 2.5965-3.0877 3.8596-0.14035 0.14035-0.35088 0.2807-0.5614 0.2807zm-6.5674 7.3916c-0.13982-0.012233-0.27352-0.094373-0.4011-0.24642-0.33119-0.24031-0.28838-0.72966 0.015718-0.98483 1.0827-1.1028 2.2414-2.2694 3.3363-3.5121 0.24031-0.33119 0.66587-0.3644 0.99095-0.05419 0.26128 0.23419 0.2945 0.65976 0.05419 0.99095-1.0949 1.2426-2.2536 2.4092-3.4124 3.5758-0.15205 0.12758-0.37401 0.24905-0.58373 0.2307zm-6.676 6.4237c-0.13898-0.019533-0.2682-0.10856-0.38766-0.26708-0.31816-0.25731-0.2498-0.74376 0.067239-0.98266 1.1389-1.0446 2.3571-2.149 3.5156-3.3326 0.25731-0.31816 0.68403-0.32906 0.99243-0.002255 0.24867 0.24754 0.25956 0.67427 0.0022535 0.99243-1.1585 1.1836-2.3766 2.288-3.5948 3.3924-0.15852 0.11945-0.38653 0.22914-0.59501 0.19984zm-7.1072 6.1097c-0.13862-0.021956-0.26627-0.11322-0.38294-0.2738-0.31362-0.26282-0.23678-0.748 0.084379-0.98134 1.157-1.0246 2.3943-2.1075 3.5732-3.2708 0.26282-0.31362 0.68967-0.31707 0.99232 0.015067 0.24431 0.25185 0.24776 0.67869-0.015067 0.99232-1.1789 1.1632-2.4162 2.2462-3.6535 3.3291-0.16058 0.11667-0.39047 0.22236-0.5984 0.18942zm26.175-27.855c-0.14035 0-0.2807-0.046783-0.42105-0.14035-0.2807-0.21053-0.42105-0.63158-0.21053-0.98246 0.84211-1.3333 1.614-2.7368 2.386-4.2105 0.14035-0.35088 0.5614-0.49123 0.91228-0.2807 0.35088 0.14035 0.49123 0.5614 0.35088 0.91228-0.77193 1.4737-1.614 2.9474-2.4561 4.3509-0.14035 0.21053-0.35088 0.35088-0.5614 0.35088zm4.4211-8.7719c-0.093567 0-0.18713-0.023392-0.2807-0.070175-0.35088-0.14035-0.5614-0.5614-0.42105-0.91228 0.63158-1.4737 1.193-3.0175 1.6842-4.5614 0.14035-0.35088 0.5614-0.5614 0.91228-0.42105 0.35088 0.070175 0.5614 0.49123 0.42105 0.84211-0.49123 1.614-1.0526 3.1579-1.6842 4.7018-0.14035 0.2807-0.35088 0.42105-0.63158 0.42105zm3.0175-9.3333h-0.14035c-0.42105-0.14035-0.63158-0.49123-0.5614-0.91228 0.42105-1.5439 0.70175-3.1579 0.98246-4.7018 0.070175-0.42105 0.42105-0.70175 0.77193-0.63158 0.42105 0.070175 0.63158 0.42105 0.63158 0.84211-0.2807 1.614-0.63158 3.2281-0.98246 4.8421-0.14035 0.35088-0.42105 0.5614-0.70175 0.5614zm1.5439-9.6842h-0.070176c-0.35088-0.070175-0.63158-0.42105-0.63158-0.77193 0.14035-1.614 0.21053-3.2281 0.21053-4.8421 0-0.42105 0.35088-0.70175 0.70175-0.70175 0.42105 0 0.70175 0.2807 0.70175 0.70175 0 1.614-0.070176 3.2982-0.21053 4.9825 0 0.35088-0.35088 0.63158-0.70175 0.63158zm0.070175-9.8246c-0.35088 0-0.70175-0.2807-0.70175-0.63158-0.14035-1.614-0.35088-3.2281-0.5614-4.8421-0.070175-0.35088 0.21053-0.77193 0.5614-0.77193 0.42105-0.070176 0.77193 0.14035 0.84211 0.5614 0.21053 1.614 0.42105 3.2982 0.5614 4.9123 0 0.42105-0.2807 0.70175-0.63158 0.77193h-0.070176zm-1.5439-9.6842c-0.35088 0-0.63158-0.21053-0.70175-0.5614-0.23392-0.98246-0.51462-1.9649-0.84211-2.9474-0.14035-0.5614-0.30409-1.1228-0.49123-1.6842-0.14035-0.35088 0.070176-0.77193 0.42105-0.91228s0.77193 0.070176 0.91228 0.42105c0.18713 0.60819 0.37427 1.193 0.5614 1.7544 0.2807 1.0292 0.53801 2.0351 0.77193 3.0175 0.14035 0.42105-0.070175 0.77193-0.49123 0.91228h-0.14035zm-3.1579-9.3333c-0.21053 0-0.49123-0.14035-0.63158-0.42105-0.63158-1.4737-1.3333-2.9474-2.0351-4.3509-0.21053-0.35088-0.070176-0.77193 0.2807-0.98246 0.35088-0.14035 0.77193-0.070176 0.91228 0.2807 0.77193 1.4737 1.4737 2.9474 2.1754 4.4912 0.14035 0.35088-0.070175 0.77193-0.42105 0.91228-0.093567 0.046784-0.18713 0.070175-0.2807 0.070175zm-4.4912-8.7018c-0.2807 0-0.49123-0.070176-0.63158-0.2807-0.84211-1.4035-1.7544-2.7368-2.7368-4-0.2807-0.2807-0.21053-0.77193 0.14035-0.98246 0.2807-0.21053 0.70175-0.14035 0.98246 0.14035 0.98246 1.3333 1.8947 2.6667 2.807 4.0702 0.21053 0.35088 0.14035 0.77193-0.21053 0.98246-0.14035 0.046784-0.25731 0.070176-0.35088 0.070176zm-5.9649-7.7895c-0.21053 0-0.42105-0.070176-0.5614-0.21053-1.0526-1.193-2.1754-2.3158-3.3684-3.4386-0.2807-0.2807-0.35088-0.70175-0.070175-0.98246 0.2807-0.2807 0.70175-0.2807 0.98246-0.070175 1.2632 1.1228 2.386 2.3158 3.5088 3.5789 0.2807 0.2807 0.2807 0.70175-0.070176 0.98246-0.14035 0.093567-0.2807 0.14035-0.42105 0.14035zm-7.2281-6.6667c-0.14035 0-0.2807-0.046784-0.42105-0.14035-1.2632-0.98246-2.5965-1.8947-3.9298-2.807-0.35088-0.21053-0.42105-0.63158-0.21053-0.98246s0.63158-0.42105 0.98246-0.21053c1.4035 0.91228 2.7368 1.8947 4 2.9474 0.35088 0.21053 0.35088 0.63158 0.14035 0.98246-0.14035 0.14035-0.35088 0.21053-0.5614 0.21053zm-8.1404-5.4035c-0.14035 0-0.25731-0.023392-0.35088-0.070175-1.4035-0.77193-2.8772-1.5439-4.3509-2.2456-0.35088-0.21053-0.49123-0.63158-0.2807-0.98246 0.14035-0.35088 0.5614-0.49123 0.91228-0.2807 1.4737 0.70175 2.9474 1.4737 4.4211 2.2456 0.2807 0.21053 0.42105 0.63158 0.21053 0.98246-0.070175 0.21053-0.35088 0.35088-0.5614 0.35088zm-8.8421-4.2807h-0.2807c-1.4737-0.63158-3.0175-1.193-4.5614-1.7544-0.42105-0.14035-0.5614-0.49123-0.42105-0.84211 0.070175-0.42105 0.49123-0.5614 0.84211-0.49123 1.614 0.5614 3.1579 1.1228 4.6316 1.7544 0.35088 0.14035 0.5614 0.5614 0.42105 0.91228-0.14035 0.2807-0.35088 0.42105-0.63158 0.42105z"/>
</g>
<g id="&lt;Group&gt;" transform="translate(241.62 47.602)" fill="#89C5CC">
<path id="&lt;Compound-Path&gt;" d="m49.097 21.474c-0.42105 0-0.70175-0.35088-0.70175-0.70175 0-0.42105 0.2807-0.70175 0.70175-0.70175 1.614 0 3.2281-0.070175 4.8421-0.070175 0.42105 0 0.77193 0.2807 0.77193 0.63158 0 0.42105-0.2807 0.77193-0.70175 0.77193-1.6842 0-3.2982 0.070175-4.9123 0.070175zm-4.9123-0.070175c-1.6842 0-3.3684-0.070176-4.9825-0.14035-0.35088 0-0.63158-0.35088-0.63158-0.77193 0-0.35088 0.35088-0.63158 0.70175-0.63158 1.614 0.070176 3.2982 0.14035 4.9123 0.14035 0.42105 0 0.70175 0.35088 0.70175 0.77193 0 0.35088-0.35088 0.63158-0.70175 0.63158zm14.737-0.21053c-0.42105 0-0.70175-0.2807-0.70175-0.63158-0.070175-0.42105 0.2807-0.77193 0.63158-0.77193 1.614-0.070176 3.2281-0.21053 4.9123-0.2807 0.35088-0.070175 0.70175 0.2807 0.77193 0.63158 0 0.42105-0.2807 0.70175-0.70175 0.77193-1.614 0.070175-3.2982 0.21053-4.9123 0.2807zm-24.561-0.21053h-0.070175c-1.614-0.14035-3.2982-0.2807-4.9123-0.49123-0.35088 0-0.63158-0.35088-0.63158-0.77193 0.070176-0.35088 0.42105-0.63158 0.77193-0.63158 1.614 0.21053 3.2281 0.35088 4.9123 0.49123 0.35088 0 0.63158 0.35088 0.63158 0.70175 0 0.42105-0.35088 0.70175-0.70175 0.70175zm34.316-0.49123c-0.35088 0-0.63158-0.2807-0.70175-0.63158 0-0.35088 0.2807-0.70175 0.63158-0.77193 1.6374-0.14035 3.2749-0.30409 4.9123-0.49123 0.35088 0 0.70175 0.2807 0.77193 0.63158 0.070176 0.42105-0.21053 0.77193-0.63158 0.77193-1.6374 0.18713-3.2749 0.35088-4.9123 0.49123h-0.070175zm-44.07-0.5614h-0.14035c-1.614-0.2807-3.2281-0.49123-4.8421-0.77193-0.35088-0.070175-0.63158-0.42105-0.5614-0.84211 0.070175-0.35088 0.42105-0.63158 0.77193-0.5614 1.614 0.2807 3.2281 0.5614 4.8421 0.77193 0.42105 0.070175 0.63158 0.42105 0.63158 0.77193-0.070175 0.35088-0.35088 0.63158-0.70175 0.63158zm53.895-0.49123c-0.35088 0-0.70175-0.21053-0.70175-0.5614-0.070176-0.42105 0.21053-0.77193 0.5614-0.84211 1.6374-0.18713 3.2749-0.39766 4.9123-0.63158 0.35088 0 0.70175 0.21053 0.77193 0.63158 0.070175 0.35088-0.21053 0.70175-0.63158 0.77193-1.5906 0.23392-3.2047 0.44444-4.8421 0.63158h-0.070176zm-63.579-1.193h-0.14035c-1.614-0.35088-3.2281-0.77193-4.8421-1.1228-0.35088-0.070175-0.5614-0.49123-0.49123-0.84211 0.070175-0.42105 0.49123-0.63158 0.84211-0.5614 1.5439 0.42105 3.1579 0.77193 4.7719 1.1228 0.35088 0.070175 0.63158 0.42105 0.5614 0.84211-0.070175 0.35088-0.35088 0.5614-0.70175 0.5614zm73.263-0.14035c-0.35088 0-0.63158-0.21053-0.70175-0.5614 0-0.42105 0.21053-0.77193 0.63158-0.84211 1.5906-0.23392 3.2047-0.49123 4.8421-0.77193 0.35088-0.070176 0.70175 0.21053 0.77193 0.63158 0.070175 0.35088-0.21053 0.70175-0.5614 0.77193-1.6374 0.2807-3.2515 0.53801-4.8421 0.77193h-0.14035zm9.6842-1.614c-0.2807 0-0.63158-0.21053-0.63158-0.5614-0.070175-0.35088 0.14035-0.70175 0.5614-0.77193 1.5906-0.2807 3.2047-0.5848 4.8421-0.91228 0.35088-0.070175 0.70176 0.21053 0.77193 0.5614 0.070176 0.42105-0.14035 0.77193-0.5614 0.84211-1.5906 0.2807-3.2047 0.5614-4.8421 0.84211h-0.14035zm-92.491-0.63158h-0.21053c-1.1228-0.37427-2.2456-0.72515-3.3684-1.0526-0.46784-0.14035-0.91228-0.2807-1.3333-0.42105-0.35088-0.14035-0.5614-0.5614-0.42105-0.91228 0.070175-0.35088 0.49123-0.5614 0.84211-0.42105 0.42105 0.14035 0.8655 0.2807 1.3333 0.42105 1.076 0.32749 2.1988 0.65497 3.3684 0.98246 0.35088 0.14035 0.5614 0.49123 0.49123 0.91228-0.14035 0.2807-0.42105 0.49123-0.70175 0.49123zm102.18-1.1228c-0.35088 0-0.63158-0.21053-0.70175-0.5614-0.070176-0.35088 0.21053-0.70175 0.5614-0.77193 1.6374-0.32749 3.2515-0.65497 4.8421-0.98246 0.35088-0.070175 0.77193 0.21053 0.84211 0.5614 0.070175 0.42105-0.21053 0.77193-0.5614 0.84211-1.6374 0.32749-3.2515 0.63158-4.8421 0.91228h-0.14035zm9.6842-1.8246c-0.35088 0-0.63158-0.2807-0.70176-0.5614-0.070175-0.42105 0.14035-0.77193 0.5614-0.84211 1.5906-0.32749 3.1813-0.65497 4.7719-0.98246 0.42105-0.070176 0.77193 0.21053 0.84211 0.5614 0.070175 0.35088-0.14035 0.77193-0.5614 0.84211-1.5906 0.32749-3.2047 0.63158-4.8421 0.91228 0 0.046784-0.023392 0.070175-0.070175 0.070175zm9.614-1.9649c-0.35088 0-0.63158-0.21053-0.70176-0.5614-0.070175-0.35088 0.14035-0.77193 0.5614-0.84211 1.5906-0.32749 3.2047-0.63158 4.8421-0.91228 0.35088-0.070175 0.70175 0.14035 0.77193 0.49123 0.070175 0.42105-0.14035 0.77193-0.5614 0.84211-1.5906 0.32749-3.1813 0.65497-4.7719 0.98246h-0.14035zm9.614-1.8947c-0.35088 0-0.63158-0.2807-0.70176-0.5614-0.070175-0.42105 0.21053-0.77193 0.5614-0.84211 1.6374-0.32749 3.2515-0.63158 4.8421-0.91228 0.35088-0.070175 0.77193 0.14035 0.8421 0.5614 0.070176 0.35088-0.21053 0.70175-0.5614 0.77193-1.6374 0.32749-3.2515 0.65497-4.8421 0.98246h-0.14035zm9.6842-1.8947c-0.35088 0-0.63158-0.21053-0.70175-0.5614-0.070176-0.35088 0.14035-0.70175 0.5614-0.77193 1.5906-0.32749 3.2047-0.63158 4.8421-0.91228 0.35088-0.070175 0.70175 0.21053 0.77193 0.5614 0.070176 0.42105-0.14035 0.77193-0.5614 0.84211-1.5906 0.2807-3.2047 0.5614-4.8421 0.84211h-0.070176zm9.614-1.6842c-0.2807 0-0.63158-0.2807-0.63158-0.5614-0.070175-0.42105 0.14035-0.77193 0.5614-0.84211 1.5906-0.2807 3.2047-0.53801 4.8421-0.77193 0.35088-0.070175 0.77193 0.21053 0.77193 0.5614 0.070175 0.35088-0.14035 0.77193-0.5614 0.77193-1.5906 0.2807-3.2047 0.5614-4.8421 0.84211h-0.14035zm9.7544-1.5439c-0.35088 0-0.63158-0.21053-0.70175-0.5614-0.070176-0.42105 0.21053-0.77193 0.5614-0.84211 1.6374-0.23392 3.2749-0.44444 4.9123-0.63158 0.35088-0.070175 0.70175 0.21053 0.77193 0.5614 0.070175 0.42105-0.21053 0.77193-0.63158 0.77193-1.5906 0.23392-3.2047 0.46784-4.8421 0.70175h-0.070176zm9.7544-1.2632c-0.35088 0-0.70175-0.2807-0.70175-0.63158-0.070176-0.35088 0.21053-0.70175 0.5614-0.77193 1.6374-0.18713 3.2749-0.35088 4.9123-0.49123 0.42105-0.070175 0.77193 0.21053 0.77193 0.63158 0.070175 0.35088-0.21053 0.70175-0.63158 0.77193-1.6374 0.14035-3.2515 0.30409-4.8421 0.49123h-0.070176zm9.7544-0.91228c-0.35088 0-0.70175-0.2807-0.70175-0.70175-0.070176-0.35088 0.2807-0.70175 0.63158-0.70175 1.6842-0.14035 3.2982-0.2807 4.9123-0.35088 0.42105 0 0.70176 0.2807 0.77193 0.70175 0 0.35088-0.2807 0.70175-0.70175 0.70175-1.614 0.070175-3.2281 0.21053-4.8421 0.35088h-0.070176z"/>
</g>
<g id="&lt;Group&gt;" transform="translate(119.21 58.689)" fill="#DDE3E9">
<g id="&lt;Compound-Path&gt;" transform="translate(1.6842 1.614)">
<path id="形状" d="m8.9123 17.825c-4.9123 0-8.9123-4-8.9123-8.9123s4-8.9123 8.9123-8.9123 8.9123 4 8.9123 8.9123-4 8.9123-8.9123 8.9123zm0-15.298c-3.5789 0-6.4561 2.8772-6.4561 6.386 0 3.5789 2.8772 6.4561 6.4561 6.4561 3.5088 0 6.386-2.8772 6.386-6.4561 0-3.5088-2.8772-6.386-6.386-6.386z"/>
</g>
<g id="&lt;Compound-Path&gt;" transform="translate(6.5263 6.4561)">
<path id="形状" d="m4.0702 8.1404c-2.2456 0-4.0702-1.8246-4.0702-4.0702 0-2.2456 1.8246-4.0702 4.0702-4.0702 2.2456 0 4.0702 1.8246 4.0702 4.0702 0 2.2456-1.8246 4.0702-4.0702 4.0702zm0-5.6842c-0.91228 0-1.614 0.77193-1.614 1.614 0 0.91228 0.70175 1.614 1.614 1.614 0.84211 0 1.5439-0.70175 1.5439-1.614 0-0.84211-0.70175-1.614-1.5439-1.614z"/>
</g>
<g id="&lt;Path&gt;" transform="translate(16.982 9.2632)">
<path id="路径" d="m2.8772 2.5263h-1.614c-0.70175 0-1.2632-0.5614-1.2632-1.2632 0-0.70175 0.5614-1.2632 1.2632-1.2632h1.614c0.70175 0 1.2632 0.5614 1.2632 1.2632 0 0.70175-0.5614 1.2632-1.2632 1.2632z"/>
</g>
<g id="&lt;Path&gt;" transform="translate(15.969 4.6706)">
<path id="路径" d="m1.2242 3.2593c-0.42105 0-0.84211-0.21053-1.0526-0.63158-0.35088-0.5614-0.14035-1.3333 0.42105-1.6842l1.4737-0.77193c0.5614-0.35088 1.3333-0.14035 1.6842 0.42105 0.35088 0.5614 0.14035 1.3333-0.49123 1.6842l-1.4035 0.84211c-0.18713 0.093567-0.39766 0.14035-0.63158 0.14035z"/>
</g>
<g id="&lt;Path&gt;" transform="translate(13.162 1.232)">
<path id="路径" d="m1.2242 3.8908c-0.18713 0-0.39766-0.046784-0.63158-0.14035-0.5614-0.35088-0.77193-1.1228-0.42105-1.6842l0.84211-1.4737c0.35088-0.5614 1.0526-0.77193 1.6842-0.42105 0.5614 0.35088 0.77193 1.1228 0.42105 1.6842l-0.77193 1.4035c-0.2807 0.42105-0.70175 0.63158-1.1228 0.63158z"/>
</g>
<g id="&lt;Path&gt;" transform="translate(9.3333)">
<path id="路径" d="m1.2632 4.1404c-0.70175 0-1.2632-0.5614-1.2632-1.2632v-1.6842c0-0.63158 0.5614-1.193 1.2632-1.193 0.63158 1.465e-28 1.193 0.5614 1.193 1.193v1.6842c0 0.70175-0.5614 1.2632-1.193 1.2632z"/>
</g>
<g id="&lt;Path&gt;" transform="translate(4.6706 1.232)">
<path id="路径" d="m2.0663 3.8908c-0.42105 0-0.84211-0.21053-1.0526-0.63158l-0.84211-1.4035c-0.35088-0.5614-0.14035-1.3333 0.42105-1.6842 0.63158-0.35088 1.4035-0.14035 1.7544 0.42105l0.77193 1.4737c0.35088 0.5614 0.14035 1.3333-0.42105 1.6842-0.18713 0.093567-0.39766 0.14035-0.63158 0.14035z"/>
</g>
<g id="&lt;Path&gt;" transform="translate(1.2657 4.6706)">
<path id="路径" d="m2.6642 3.2593c-0.23392 0-0.44444-0.046784-0.63158-0.14035l-1.4035-0.84211c-0.63158-0.35088-0.77193-1.1228-0.49123-1.6842 0.35088-0.5614 1.1228-0.77193 1.7544-0.42105l1.4035 0.77193c0.5614 0.35088 0.77193 1.1228 0.42105 1.6842-0.21053 0.42105-0.63158 0.63158-1.0526 0.63158z"/>
</g>
<g id="&lt;Path&gt;" transform="translate(0 9.2632)">
<path id="路径" d="m2.8772 2.5263h-1.614c-0.70175 0-1.2632-0.5614-1.2632-1.2632 1.477e-28 -0.70175 0.5614-1.2632 1.2632-1.2632h1.614c0.70175 0 1.2632 0.5614 1.2632 1.2632 0 0.70175-0.5614 1.2632-1.2632 1.2632z"/>
</g>
<g id="&lt;Path&gt;" transform="translate(1.2657 13.125)">
<path id="路径" d="m1.2607 3.2957c-0.42105 0-0.84211-0.21053-1.1228-0.63158-0.2807-0.5614-0.14035-1.3333 0.49123-1.6842l1.4035-0.84211c0.63158-0.2807 1.3333-0.14035 1.6842 0.49123 0.35088 0.5614 0.14035 1.3333-0.42105 1.6842l-1.4035 0.84211c-0.23392 0.093567-0.44444 0.14035-0.63158 0.14035z"/>
</g>
<g id="&lt;Path&gt;" transform="translate(4.6706 15.932)">
<path id="路径" d="m1.2242 3.9273c-0.18713 0-0.39766-0.070175-0.63158-0.21053-0.5614-0.2807-0.77193-1.0526-0.42105-1.6842l0.84211-1.4035c0.35088-0.63158 1.0526-0.77193 1.6842-0.49123 0.5614 0.35088 0.77193 1.1228 0.42105 1.7544l-0.77193 1.4035c-0.2807 0.42105-0.70175 0.63158-1.1228 0.63158z"/>
</g>
<g id="&lt;Path&gt;" transform="translate(9.3333 16.982)">
<path id="路径" d="m1.2632 4.1404c-0.70175 0-1.2632-0.5614-1.2632-1.2632v-1.6842c0-0.63158 0.5614-1.193 1.2632-1.193 0.63158 1.465e-28 1.193 0.5614 1.193 1.193v1.6842c0 0.70175-0.5614 1.2632-1.193 1.2632z"/>
</g>
<g id="&lt;Path&gt;" transform="translate(13.162 15.932)">
<path id="路径" d="m2.0663 3.9273c-0.42105 0-0.84211-0.21053-1.0526-0.63158l-0.84211-1.4035c-0.35088-0.63158-0.14035-1.4035 0.42105-1.7544 0.63158-0.2807 1.4035-0.14035 1.7544 0.49123l0.77193 1.4035c0.35088 0.63158 0.14035 1.4035-0.42105 1.6842-0.18713 0.14035-0.39766 0.21053-0.63158 0.21053z"/>
</g>
<g id="&lt;Path&gt;" transform="translate(15.969 13.125)">
<path id="路径" d="m2.6979 3.2957c-0.23392 0-0.44444-0.046784-0.63158-0.14035l-1.4737-0.84211c-0.5614-0.35088-0.77193-1.1228-0.42105-1.6842 0.35088-0.63158 1.1228-0.77193 1.6842-0.49123l1.4035 0.84211c0.63158 0.35088 0.84211 1.1228 0.49123 1.6842-0.21053 0.42105-0.63158 0.63158-1.0526 0.63158z"/>
</g>
</g>
<g id="&lt;Group&gt;" transform="translate(119.21 82.549)" fill="#C5CFD6">
<g id="&lt;Compound-Path&gt;" transform="translate(1.6842 1.614)">
<path id="形状" d="m8.9123 17.825c-4.9123 0-8.9123-4-8.9123-8.9123s4-8.9123 8.9123-8.9123 8.9123 4 8.9123 8.9123-4 8.9123-8.9123 8.9123zm0-15.298c-3.5789 0-6.4561 2.8772-6.4561 6.386 0 3.5789 2.8772 6.4561 6.4561 6.4561 3.5088 0 6.386-2.8772 6.386-6.4561 0-3.5088-2.8772-6.386-6.386-6.386z"/>
</g>
<g id="&lt;Compound-Path&gt;" transform="translate(6.5263 6.4561)">
<path id="形状" d="m4.0702 8.1404c-2.2456 0-4.0702-1.8246-4.0702-4.0702 0-2.2456 1.8246-4.0702 4.0702-4.0702 2.2456 0 4.0702 1.8246 4.0702 4.0702 0 2.2456-1.8246 4.0702-4.0702 4.0702zm0-5.6842c-0.91228 0-1.614 0.77193-1.614 1.614 0 0.91228 0.70175 1.614 1.614 1.614 0.84211 0 1.5439-0.70175 1.5439-1.614 0-0.84211-0.70175-1.614-1.5439-1.614z"/>
</g>
<g id="&lt;Path&gt;" transform="translate(16.982 9.2632)">
<path id="路径" d="m2.8772 2.5263h-1.614c-0.70175 0-1.2632-0.5614-1.2632-1.2632 0-0.70175 0.5614-1.2632 1.2632-1.2632h1.614c0.70175 0 1.2632 0.5614 1.2632 1.2632 0 0.70175-0.5614 1.2632-1.2632 1.2632z"/>
</g>
<g id="&lt;Path&gt;" transform="translate(15.969 4.6706)">
<path id="路径" d="m1.2242 3.2593c-0.42105 0-0.84211-0.21053-1.0526-0.63158-0.35088-0.5614-0.14035-1.3333 0.42105-1.6842l1.4737-0.77193c0.5614-0.35088 1.3333-0.14035 1.6842 0.42105 0.35088 0.5614 0.14035 1.3333-0.49123 1.6842l-1.4035 0.84211c-0.18713 0.093567-0.39766 0.14035-0.63158 0.14035z"/>
</g>
<g id="&lt;Path&gt;" transform="translate(13.162 1.232)">
<path id="路径" d="m1.2242 3.8908c-0.18713 0-0.39766-0.046784-0.63158-0.14035-0.5614-0.35088-0.77193-1.1228-0.42105-1.6842l0.84211-1.4737c0.35088-0.5614 1.0526-0.77193 1.6842-0.42105 0.5614 0.35088 0.77193 1.1228 0.42105 1.6842l-0.77193 1.4035c-0.2807 0.42105-0.70175 0.63158-1.1228 0.63158z"/>
</g>
<g id="&lt;Path&gt;" transform="translate(9.3333)">
<path id="路径" d="m1.2632 4.1404c-0.70175 0-1.2632-0.5614-1.2632-1.2632v-1.6842c0-0.63158 0.5614-1.193 1.2632-1.193 0.63158 1.465e-28 1.193 0.5614 1.193 1.193v1.6842c0 0.70175-0.5614 1.2632-1.193 1.2632z"/>
</g>
<g id="&lt;Path&gt;" transform="translate(4.6706 1.232)">
<path id="路径" d="m2.0663 3.8908c-0.42105 0-0.84211-0.21053-1.0526-0.63158l-0.84211-1.4035c-0.35088-0.5614-0.14035-1.3333 0.42105-1.6842 0.63158-0.35088 1.4035-0.14035 1.7544 0.42105l0.77193 1.4737c0.35088 0.5614 0.14035 1.3333-0.42105 1.6842-0.18713 0.093567-0.39766 0.14035-0.63158 0.14035z"/>
</g>
<g id="&lt;Path&gt;" transform="translate(1.2657 4.6706)">
<path id="路径" d="m2.6642 3.2593c-0.23392 0-0.44444-0.046784-0.63158-0.14035l-1.4035-0.84211c-0.63158-0.35088-0.77193-1.1228-0.49123-1.6842 0.35088-0.5614 1.1228-0.77193 1.7544-0.42105l1.4035 0.77193c0.5614 0.35088 0.77193 1.1228 0.42105 1.6842-0.21053 0.42105-0.63158 0.63158-1.0526 0.63158z"/>
</g>
<g id="&lt;Path&gt;" transform="translate(0 9.2632)">
<path id="路径" d="m2.8772 2.5263h-1.614c-0.70175 0-1.2632-0.5614-1.2632-1.2632 1.477e-28 -0.70175 0.5614-1.2632 1.2632-1.2632h1.614c0.70175 0 1.2632 0.5614 1.2632 1.2632 0 0.70175-0.5614 1.2632-1.2632 1.2632z"/>
</g>
<g id="&lt;Path&gt;" transform="translate(1.2657 13.125)">
<path id="路径" d="m1.2607 3.2957c-0.42105 0-0.84211-0.21053-1.1228-0.63158-0.2807-0.5614-0.14035-1.3333 0.49123-1.6842l1.4035-0.84211c0.63158-0.2807 1.3333-0.14035 1.6842 0.49123 0.35088 0.5614 0.14035 1.3333-0.42105 1.6842l-1.4035 0.84211c-0.23392 0.093567-0.44444 0.14035-0.63158 0.14035z"/>
</g>
<g id="&lt;Path&gt;" transform="translate(4.6706 15.932)">
<path id="路径" d="m1.2242 3.9273c-0.18713 0-0.39766-0.070175-0.63158-0.21053-0.5614-0.2807-0.77193-1.0526-0.42105-1.6842l0.84211-1.4035c0.35088-0.63158 1.0526-0.77193 1.6842-0.49123 0.5614 0.35088 0.77193 1.1228 0.42105 1.7544l-0.77193 1.4035c-0.2807 0.42105-0.70175 0.63158-1.1228 0.63158z"/>
</g>
<g id="&lt;Path&gt;" transform="translate(9.3333 16.982)">
<path id="路径" d="m1.2632 4.1404c-0.70175 0-1.2632-0.5614-1.2632-1.2632v-1.6842c0-0.63158 0.5614-1.193 1.2632-1.193 0.63158 1.465e-28 1.193 0.5614 1.193 1.193v1.6842c0 0.70175-0.5614 1.2632-1.193 1.2632z"/>
</g>
<g id="&lt;Path&gt;" transform="translate(13.162 15.932)">
<path id="路径" d="m2.0663 3.9273c-0.42105 0-0.84211-0.21053-1.0526-0.63158l-0.84211-1.4035c-0.35088-0.63158-0.14035-1.4035 0.42105-1.7544 0.63158-0.2807 1.4035-0.14035 1.7544 0.49123l0.77193 1.4035c0.35088 0.63158 0.14035 1.4035-0.42105 1.6842-0.18713 0.14035-0.39766 0.21053-0.63158 0.21053z"/>
</g>
<g id="&lt;Path&gt;" transform="translate(15.969 13.125)">
<path id="路径" d="m2.6979 3.2957c-0.23392 0-0.44444-0.046784-0.63158-0.14035l-1.4737-0.84211c-0.5614-0.35088-0.77193-1.1228-0.42105-1.6842 0.35088-0.63158 1.1228-0.77193 1.6842-0.49123l1.4035 0.84211c0.63158 0.35088 0.84211 1.1228 0.49123 1.6842-0.21053 0.42105-0.63158 0.63158-1.0526 0.63158z"/>
</g>
</g>
<g id="&lt;Group&gt;" transform="translate(140.97 66.409)" fill="#AFB9C5">
<g id="&lt;Compound-Path&gt;" transform="translate(1.6842 1.614)">
<path id="形状" d="m8.9123 17.825c-4.9123 0-8.9123-4-8.9123-8.9123s4-8.9123 8.9123-8.9123 8.9123 4 8.9123 8.9123-4 8.9123-8.9123 8.9123zm0-15.298c-3.5789 0-6.4561 2.8772-6.4561 6.386 0 3.5789 2.8772 6.4561 6.4561 6.4561 3.5088 0 6.386-2.8772 6.386-6.4561 0-3.5088-2.8772-6.386-6.386-6.386z"/>
</g>
<g id="&lt;Compound-Path&gt;" transform="translate(6.5263 6.4561)">
<path id="形状" d="m4.0702 8.1404c-2.2456 0-4.0702-1.8246-4.0702-4.0702 0-2.2456 1.8246-4.0702 4.0702-4.0702 2.2456 0 4.0702 1.8246 4.0702 4.0702 0 2.2456-1.8246 4.0702-4.0702 4.0702zm0-5.6842c-0.91228 0-1.614 0.77193-1.614 1.614 0 0.91228 0.70175 1.614 1.614 1.614 0.84211 0 1.5439-0.70175 1.5439-1.614 0-0.84211-0.70175-1.614-1.5439-1.614z"/>
</g>
<g id="&lt;Path&gt;" transform="translate(16.982 9.2632)">
<path id="路径" d="m2.8772 2.5263h-1.614c-0.70175 0-1.2632-0.5614-1.2632-1.2632 0-0.70175 0.5614-1.2632 1.2632-1.2632h1.614c0.70175 0 1.2632 0.5614 1.2632 1.2632 0 0.70175-0.5614 1.2632-1.2632 1.2632z"/>
</g>
<g id="&lt;Path&gt;" transform="translate(15.969 4.6706)">
<path id="路径" d="m1.2242 3.2593c-0.42105 0-0.84211-0.21053-1.0526-0.63158-0.35088-0.5614-0.14035-1.3333 0.42105-1.6842l1.4737-0.77193c0.5614-0.35088 1.3333-0.14035 1.6842 0.42105 0.35088 0.5614 0.14035 1.3333-0.49123 1.6842l-1.4035 0.84211c-0.18713 0.093567-0.39766 0.14035-0.63158 0.14035z"/>
</g>
<g id="&lt;Path&gt;" transform="translate(13.162 1.232)">
<path id="路径" d="m1.2242 3.8908c-0.18713 0-0.39766-0.046784-0.63158-0.14035-0.5614-0.35088-0.77193-1.1228-0.42105-1.6842l0.84211-1.4737c0.35088-0.5614 1.0526-0.77193 1.6842-0.42105 0.5614 0.35088 0.77193 1.1228 0.42105 1.6842l-0.77193 1.4035c-0.2807 0.42105-0.70175 0.63158-1.1228 0.63158z"/>
</g>
<g id="&lt;Path&gt;" transform="translate(9.3333)">
<path id="路径" d="m1.2632 4.1404c-0.70175 0-1.2632-0.5614-1.2632-1.2632v-1.6842c0-0.63158 0.5614-1.193 1.2632-1.193 0.63158 1.465e-28 1.193 0.5614 1.193 1.193v1.6842c0 0.70175-0.5614 1.2632-1.193 1.2632z"/>
</g>
<g id="&lt;Path&gt;" transform="translate(4.6706 1.232)">
<path id="路径" d="m2.0663 3.8908c-0.42105 0-0.84211-0.21053-1.0526-0.63158l-0.84211-1.4035c-0.35088-0.5614-0.14035-1.3333 0.42105-1.6842 0.63158-0.35088 1.4035-0.14035 1.7544 0.42105l0.77193 1.4737c0.35088 0.5614 0.14035 1.3333-0.42105 1.6842-0.18713 0.093567-0.39766 0.14035-0.63158 0.14035z"/>
</g>
<g id="&lt;Path&gt;" transform="translate(1.2657 4.6706)">
<path id="路径" d="m2.6642 3.2593c-0.23392 0-0.44444-0.046784-0.63158-0.14035l-1.4035-0.84211c-0.63158-0.35088-0.77193-1.1228-0.49123-1.6842 0.35088-0.5614 1.1228-0.77193 1.7544-0.42105l1.4035 0.77193c0.5614 0.35088 0.77193 1.1228 0.42105 1.6842-0.21053 0.42105-0.63158 0.63158-1.0526 0.63158z"/>
</g>
<g id="&lt;Path&gt;" transform="translate(0 9.2632)">
<path id="路径" d="m2.8772 2.5263h-1.614c-0.70175 0-1.2632-0.5614-1.2632-1.2632 1.477e-28 -0.70175 0.5614-1.2632 1.2632-1.2632h1.614c0.70175 0 1.2632 0.5614 1.2632 1.2632 0 0.70175-0.5614 1.2632-1.2632 1.2632z"/>
</g>
<g id="&lt;Path&gt;" transform="translate(1.2657 13.125)">
<path id="路径" d="m1.2607 3.2957c-0.42105 0-0.84211-0.21053-1.1228-0.63158-0.2807-0.5614-0.14035-1.3333 0.49123-1.6842l1.4035-0.84211c0.63158-0.2807 1.3333-0.14035 1.6842 0.49123 0.35088 0.5614 0.14035 1.3333-0.42105 1.6842l-1.4035 0.84211c-0.23392 0.093567-0.44444 0.14035-0.63158 0.14035z"/>
</g>
<g id="&lt;Path&gt;" transform="translate(4.6706 15.932)">
<path id="路径" d="m1.2242 3.9273c-0.18713 0-0.39766-0.070175-0.63158-0.21053-0.5614-0.2807-0.77193-1.0526-0.42105-1.6842l0.84211-1.4035c0.35088-0.63158 1.0526-0.77193 1.6842-0.49123 0.5614 0.35088 0.77193 1.1228 0.42105 1.7544l-0.77193 1.4035c-0.2807 0.42105-0.70175 0.63158-1.1228 0.63158z"/>
</g>
<g id="&lt;Path&gt;" transform="translate(9.3333 16.982)">
<path id="路径" d="m1.2632 4.1404c-0.70175 0-1.2632-0.5614-1.2632-1.2632v-1.6842c0-0.63158 0.5614-1.193 1.2632-1.193 0.63158 1.465e-28 1.193 0.5614 1.193 1.193v1.6842c0 0.70175-0.5614 1.2632-1.193 1.2632z"/>
</g>
<g id="&lt;Path&gt;" transform="translate(13.162 15.932)">
<path id="路径" d="m2.0663 3.9273c-0.42105 0-0.84211-0.21053-1.0526-0.63158l-0.84211-1.4035c-0.35088-0.63158-0.14035-1.4035 0.42105-1.7544 0.63158-0.2807 1.4035-0.14035 1.7544 0.49123l0.77193 1.4035c0.35088 0.63158 0.14035 1.4035-0.42105 1.6842-0.18713 0.14035-0.39766 0.21053-0.63158 0.21053z"/>
</g>
<g id="&lt;Path&gt;" transform="translate(15.969 13.125)">
<path id="路径" d="m2.6979 3.2957c-0.23392 0-0.44444-0.046784-0.63158-0.14035l-1.4737-0.84211c-0.5614-0.35088-0.77193-1.1228-0.42105-1.6842 0.35088-0.63158 1.1228-0.77193 1.6842-0.49123l1.4035 0.84211c0.63158 0.35088 0.84211 1.1228 0.49123 1.6842-0.21053 0.42105-0.63158 0.63158-1.0526 0.63158z"/>
</g>
</g>
<g id="&lt;Group&gt;" transform="translate(483.84 91.602)" fill="#C5CFD6">
<g id="&lt;Compound-Path&gt;" transform="translate(0)">
<path id="形状" d="m9.8947 19.86c-5.4737 0-9.8947-4.4211-9.8947-9.8947 1.68e-28 -5.4737 4.4211-9.9649 9.8947-9.9649 5.5439 1.465e-28 9.9649 4.4912 9.9649 9.9649 0 5.4737-4.4211 9.8947-9.9649 9.8947zm0-18.596c-4.7719 0-8.6316 3.8596-8.6316 8.7018 0 4.7719 3.8596 8.6316 8.6316 8.6316 4.8421 0 8.7018-3.8596 8.7018-8.6316 0-4.8421-3.8596-8.7018-8.7018-8.7018z"/>
</g>
<g id="g" transform="translate(4.3509)">
<path id="形状" d="m5.5439 19.86c-3.0877 0-5.5439-4.3509-5.5439-9.8947 1.68e-28 -5.614 2.4561-9.9649 5.5439-9.9649 3.1579 1.465e-28 5.614 4.3509 5.614 9.9649 0 5.5439-2.4561 9.8947-5.614 9.8947zm0-18.596c-2.3158 0-4.3509 4-4.3509 8.7018 0 4.7018 2.0351 8.6316 4.3509 8.6316 2.386 0 4.4211-3.9298 4.4211-8.6316 0-4.7018-2.0351-8.7018-4.4211-8.7018z"/>
</g>
<g id="&lt;Path&gt;" transform="translate(2.8772 2.5789)">
<path id="路径" d="m7.0175 3.807c-2.5263 0-4.9825-0.98246-6.807-2.7368-0.2807-0.21053-0.2807-0.63158 0-0.91228 0.21053-0.21053 0.63158-0.21053 0.84211 0 1.614 1.5439 3.7895 2.386 5.9649 2.386 2.2456 0 4.4211-0.84211 6.0351-2.386 0.21053-0.21053 0.63158-0.21053 0.84211 0 0.2807 0.2807 0.2807 0.70175 0 0.91228-1.8246 1.7544-4.2807 2.7368-6.8772 2.7368z"/>
</g>
<g id="&lt;Path&gt;" transform="translate(2.8772 13.474)">
<path id="路径" d="m13.474 3.8596c-0.14035 0-0.2807-0.070175-0.42105-0.21053-1.614-1.5439-3.7895-2.386-6.0351-2.386-2.1754 0-4.3509 0.84211-5.9649 2.386-0.21053 0.2807-0.63158 0.21053-0.84211 0-0.2807-0.2807-0.2807-0.63158 0-0.91228 1.8246-1.7544 4.2807-2.7368 6.807-2.7368 2.5965 1.465e-28 5.0526 0.98246 6.8772 2.7368 0.2807 0.2807 0.2807 0.63158 0 0.91228-0.093567 0.14035-0.23392 0.21053-0.42105 0.21053z"/>
</g>
<g id="&lt;Path&gt;" transform="translate(0 9.3333)">
<path id="路径" d="m19.228 1.2632h-18.596c-0.35088 0-0.63158-0.2807-0.63158-0.63158s0.2807-0.63158 0.63158-0.63158h18.596c0.35088 0 0.63158 0.2807 0.63158 0.63158s-0.2807 0.63158-0.63158 0.63158z"/>
</g>
<g id="&lt;Path&gt;" transform="translate(9.3333)">
<path id="路径" d="m0.5614 19.86c-0.2807 0-0.5614-0.2807-0.5614-0.63158v-18.596c0-0.35088 0.2807-0.63158 0.5614-0.63158 0.35088 0 0.63158 0.2807 0.63158 0.63158v18.596c0 0.35088-0.2807 0.63158-0.63158 0.63158z"/>
</g>
</g>
<g id="&lt;Group&gt;" transform="translate(68.685 219.46)" fill="#C1DEE2">
<path id="&lt;Path&gt;" d="m19.228 9.9649h-9.2632v-9.3333c5.1228 0 9.2632 4.1404 9.2632 9.3333z" opacity=".5"/>
<path id="d" d="m9.9649 19.86c-5.4737 0-9.9649-4.4211-9.9649-9.8947 0-5.4737 4.4912-9.9649 9.9649-9.9649 5.4737-1.477e-28 9.8947 4.4912 9.8947 9.9649 0 5.4737-4.4211 9.8947-9.8947 9.8947zm0-18.596c-4.8421 0-8.7018 3.8596-8.7018 8.7018 0 4.7719 3.8596 8.6316 8.7018 8.6316 4.7719 0 8.6316-3.8596 8.6316-8.6316 0-4.8421-3.8596-8.7018-8.6316-8.7018z"/>
<g id="&lt;Path&gt;" transform="translate(7.7895 9.3333)">
<path id="路径" d="m7.2281 1.193h-6.5965c-0.35088 0-0.63158-0.2807-0.63158-0.5614 0-0.35088 0.2807-0.63158 0.63158-0.63158h6.5965c0.35088 0 0.63158 0.2807 0.63158 0.63158 0 0.2807-0.2807 0.5614-0.63158 0.5614z"/>
</g>
<g id="&lt;Path&gt;" transform="translate(9.3333 1.7544)">
<path id="路径" d="m0.63158 10.386c-0.35088 0-0.63158-0.2807-0.63158-0.63158l-4.65e-29 -9.1228c0-0.35088 0.2807-0.63158 0.63158-0.63158 0.2807 0 0.5614 0.2807 0.5614 0.63158v9.1228c0 0.35088-0.2807 0.63158-0.5614 0.63158z"/>
</g>
<g id="&lt;Path&gt;" transform="translate(9.3333 16.14)">
<path id="路径" d="m0.63158 1.9649c-0.35088 0-0.63158-0.2807-0.63158-0.5614l-4.65e-29 -0.77193c0-0.35088 0.2807-0.63158 0.63158-0.63158 0.2807-4.77e-29 0.5614 0.2807 0.5614 0.63158v0.77193c0 0.2807-0.2807 0.5614-0.5614 0.5614z"/>
</g>
<g id="&lt;Path&gt;" transform="translate(16.14 9.3333)">
<path id="路径" d="m1.4035 1.193h-0.77193c-0.35088 0-0.63158-0.2807-0.63158-0.5614 0-0.35088 0.2807-0.63158 0.63158-0.63158h0.77193c0.2807 0 0.5614 0.2807 0.5614 0.63158 0 0.2807-0.2807 0.5614-0.5614 0.5614z"/>
</g>
<g id="&lt;Path&gt;" transform="translate(1.7544 9.3333)">
<path id="路径" d="m1.3333 1.193h-0.70175c-0.35088 0-0.63158-0.2807-0.63158-0.5614 0-0.35088 0.2807-0.63158 0.63158-0.63158h0.70175c0.35088 0 0.63158 0.2807 0.63158 0.63158 0 0.2807-0.2807 0.5614-0.63158 0.5614z"/>
</g>
</g>
<g id="b" transform="translate(499.69 162.48) rotate(20) translate(-32.116 -32.116)">
<path id="矩形" transform="translate(32.116 32.116) rotate(-9) translate(-32.116 -32.116)" d="m17.046 4.0456h30.14c7.1797 0 13 5.8203 13 13v30.14c0 7.1797-5.8203 13-13 13h-30.14c-7.1797 0-13-5.8203-13-13v-30.14c0-7.1797 5.8203-13 13-13z" fill="#fff"/>
<g transform="translate(31.913 31.868) rotate(-9) translate(-16.817 -6.1305)" fill="#89C5CC">
<path d="m-1.999e-16 1.2668e-16v12.025h1.3811v-5.1705h3.6379c0.75789 0 1.3305 0.13474 1.7347 0.43789 0.43789 0.30316 0.69053 0.82526 0.75789 1.5326l0.15158 1.6c0.050526 0.67368 0.21895 1.1958 0.48842 1.6h1.4989c-0.35368-0.43789-0.57263-1.0274-0.64-1.7684l-0.18526-1.8526c-0.13474-1.2126-0.77474-1.9368-1.92-2.1895v-0.033684c0.69053-0.16842 1.2295-0.50526 1.6337-1.0442 0.37053-0.52211 0.55579-1.1116 0.55579-1.7853 0-1.1116-0.37053-1.9537-1.0779-2.5263-0.69053-0.55579-1.6337-0.82526-2.8295-0.82526h-5.1874zm1.3811 1.1958h3.6379c0.92632 0 1.6168 0.18526 2.0547 0.55579 0.40421 0.35368 0.62316 0.90947 0.62316 1.6505 0 0.70737-0.21895 1.2463-0.64 1.6337-0.47158 0.40421-1.1621 0.62316-2.0379 0.62316h-3.6379v-4.4632z"/>
<path id="路径" d="m11.217 3.3179v5.3895c0 2.3579 1.0442 3.5537 3.1663 3.5537 1.1789 0 2.1221-0.53895 2.8295-1.5832v1.3474h1.3474v-8.7074h-1.3474v5.3053c-0.10105 0.74105-0.38737 1.3474-0.85895 1.8189-0.45474 0.43789-0.97684 0.67368-1.5495 0.67368-0.79158 0-1.3642-0.21895-1.7179-0.62316s-0.52211-1.0274-0.52211-1.8526v-5.3221h-1.3474z"/>
<path id="路径" d="m23.731 3.0821c-0.97684 0-1.7853 0.21895-2.3916 0.65684-0.65684 0.43789-0.97684 1.0105-0.97684 1.7516 0 0.74105 0.32 1.2968 0.99368 1.7011 0.40421 0.26947 1.1284 0.52211 2.1558 0.77474 0.94316 0.23579 1.5663 0.42105 1.8526 0.55579 0.53895 0.26947 0.82526 0.64 0.82526 1.1284 0 0.97684-0.79158 1.4821-2.3411 1.4821-0.74105 0-1.2968-0.13474-1.6674-0.40421-0.37053-0.30316-0.62316-0.79158-0.72421-1.4821h-1.3137c0.20211 2.0042 1.4484 3.0147 3.7389 3.0147 2.4589 0 3.6884-0.90947 3.6884-2.6947 0-0.75789-0.35368-1.3474-1.0442-1.7853-0.45474-0.28632-1.1958-0.55579-2.24-0.80842-0.87579-0.23579-1.4821-0.42105-1.8021-0.57263-0.50526-0.25263-0.74105-0.57263-0.74105-0.94316 0-0.38737 0.18526-0.69053 0.55579-0.90947 0.33684-0.23579 0.80842-0.33684 1.4147-0.33684 0.69053 0 1.2295 0.13474 1.6 0.40421 0.33684 0.23579 0.55579 0.64 0.67368 1.1789h1.3137c-0.23579-1.8189-1.4147-2.7116-3.5705-2.7116z"/>
<path id="路径" d="m31.478 0.50526-1.3305 0.55579v2.2568h-1.7516v1.1284h1.7516v5.5411c0 0.65684 0.13474 1.1453 0.42105 1.4821 0.30316 0.37053 0.82526 0.55579 1.5326 0.55579h1.3137v-1.1284h-1.1116c-0.30316 0-0.52211-0.08421-0.64-0.21895-0.13474-0.13474-0.18526-0.37053-0.18526-0.69053v-5.5411h2.1558v-1.1284h-2.1558v-2.8126z"/>
</g>
</g>
<g transform="translate(317.36 67.174) rotate(16) translate(-22.481 -22.481)">
<path id="e" transform="translate(22.481 22.481) rotate(-9) translate(-22.481 -22.481)" d="m15.832 2.8319h13.298c7.1797 0 13 5.8203 13 13v13.298c0 7.1797-5.8203 13-13 13h-13.298c-7.1797 0-13-5.8203-13-13v-13.298c0-7.1797 5.8203-13 13-13z" fill="#fff"/>
<g transform="translate(21.486 22.852) rotate(-6) translate(-9.28 -6.2484)" fill="#89C5CC">
<path id="路径" d="m5.8779 0.23579v8.1347c0 0.99368-0.18526 1.7179-0.53895 2.1726-0.37053 0.47158-0.96 0.72421-1.7684 0.72421-1.4653 0-2.1895-0.82526-2.1895-2.4421v-0.40421h-1.3811v0.42105c0 1.1789 0.30316 2.0884 0.94316 2.7284 0.60632 0.60632 1.4653 0.92632 2.5937 0.92632 1.3305 0 2.3074-0.37053 2.9137-1.1116 0.53895-0.67368 0.80842-1.6505 0.80842-2.9642v-8.1853h-1.3811z"/>
<path id="路径" d="m13.709-3.7227e-16c-1.2463 0-2.2737 0.26947-3.0653 0.80842-0.89263 0.57263-1.3305 1.3979-1.3305 2.4421 0 1.0105 0.45474 1.7853 1.3811 2.3242 0.38737 0.20211 1.3137 0.53895 2.7621 0.97684 1.3474 0.38737 2.2063 0.67368 2.5432 0.87579 0.79158 0.42105 1.1958 1.0105 1.1958 1.7684 0 0.64-0.30316 1.1453-0.90947 1.5158-0.60632 0.37053-1.4147 0.55579-2.3916 0.55579-1.0779 0-1.8863-0.23579-2.4421-0.67368-0.60632-0.48842-0.97684-1.2632-1.0947-2.3074h-1.3642c0.10105 1.4821 0.62316 2.5768 1.5663 3.3011 0.80842 0.60632 1.92 0.90947 3.3347 0.90947 1.4316 0 2.56-0.30316 3.4021-0.89263 0.84211-0.60632 1.2632-1.4484 1.2632-2.4926 0-1.0947-0.50526-1.9368-1.4989-2.5432-0.50526-0.30316-1.5495-0.69053-3.1326-1.1621-1.1621-0.33684-1.9032-0.58947-2.2063-0.75789-0.69053-0.37053-1.0274-0.85895-1.0274-1.4653 0-0.69053 0.28632-1.1958 0.85895-1.5326 0.50526-0.30316 1.1958-0.43789 2.0884-0.43789 0.97684 0 1.7347 0.20211 2.2737 0.64 0.52211 0.42105 0.85895 1.0611 1.0105 1.9368h1.3642c-0.11789-1.2632-0.57263-2.2232-1.3811-2.8632-0.77474-0.62316-1.8526-0.92632-3.2-0.92632z"/>
</g>
</g>
<g id="h" transform="translate(499.84 311.38) scale(-1 1) translate(-43.86 -68.623)">
<path d="m18.822 14.246c-1.987 0-3.968 0.039912-5.9525 0.14319-1.5127 0.079123-3.8244-0.23457-5.1044 0.7086-1.3299 0.97958-1.2383 2.985-1.0306 4.4011 1.0983 7.489 3.7787 14.13 9.3863 19.435 8.634 8.1699 18.532 12.321 30.245 14.17 8.2274 1.2985 15.823-0.50449 21.879-6.3571 4.4252 8.2158 7.7823 17.308 9.4668 26.484 0.83101 4.5278 1.0847 9.0011 0.93863 13.612-0.094076 2.9531-0.25693 5.8992-0.57337 8.8383-0.13719 1.2772-0.78825 3.2104-0.28829 4.4172 0.58655 1.4172 2.5647 1.5544 3.4527 0.3459 0.73907-1.0058 0.6033-2.9811 0.75511-4.1714 0.25158-1.9774 0.48464-3.9561 0.65141-5.9426 0.27083-3.2153 0.4711-6.4397 0.45791-9.6673-0.035282-7.2516-1.6471-14.532-3.8518-21.415-4.2295-13.206-11.092-24.943-21.765-34.152-6.5626-5.6625-14.073-7.9557-22.595-9.1866-5.3053-0.76637-10.697-1.6626-16.072-1.6626" fill="#C1DEE2"/>
<path d="m85.07 0.93625c-0.37434-0.27222-1.2624-0.36875-1.6756-0.45029-1.7174-0.33855-3.4865-0.48596-5.2373-0.48596-5.3987 0.0080834-10.885 0.53802-16.194 1.4553-3.3708 0.58224-7.4458 2.5418-10.799 1.4776-5.8417-1.8542-11.746-1.7631-17.288 0.88394-5.0671 2.4205-8.9138 7.0176-11.159 11.985-0.33869 0.74985-1.7127 3.5096-2.1017 5.37-0.16629 0.3804-0.32599 0.76341-0.47006 1.1521-0.40877 1.1036-0.77529 2.2267-1.1159 3.352-0.14554 0.48001-0.51157 1.5399-0.076919 1.7448-0.69447 1.2817-1.3101 2.6026-1.8229 3.9663-1.4913 3.9661-3.1217 8.3166-3.6457 12.52-0.19413 1.5565-0.20145 3.1221-0.021244 4.6817 0.089128 0.77078 0.052256 2.3209 0.57482 2.9069 1.1091 1.2437 1.6785-0.49737 1.5535-1.3266-0.95477-6.3203 0.88884-12.255 3.0738-18.196 1.4129-3.8418 3.7344-7.3564 6.3349-10.539 2.1046-2.5765 4.3624-4.6054 7.2475-6.3136 3.528-2.0888 7.3-3.7776 11.037-5.4715 2.458-1.1146 4.9189-2.1992 7.4455-3.1594 0.56187-0.21373 1.4458-0.7615 2.0688-0.76364 1.3174-0.0047549 3.1842 0.96739 4.4567 1.329 4.1854 1.1899 8.4242 2.7134 12.75 3.3211 2.7745 0.39014 5.3738-0.048976 7.9686-0.97334 0.26519-0.094148 0.70961-0.33689 1.2541-0.68352 1.9264-0.74106 3.7488-1.6737 5.3355-3.0192 0.91424-0.77529 1.7437-1.7772 2.5002-2.6942 0.22636-0.27412 0.32648-0.58842 0.3299-0.88704 0.17142-0.089631 0.28521-0.19424 0.31085-0.31644 0.18876-0.90249-1.5325-0.91913-2.6345-0.8654" fill="#89C5CC"/>
<path d="m48.677 69.175c-21.369 0-35.762 17.432-42.567 35.55-2.5652 6.8293-3.1664 14.328-4.155 21.499-0.31741 2.3012-0.19982 5.8079-1.1227 7.858-0.33491 0.74344-1.1027 1.0108-0.73561 2.0236 0.22222 0.6134 0.65827 0.98908 1.313 1.1109 1.3442 0.25045 3.2448-1.2313 4.3972-1.8161 9.5587-4.8522 15.839-12.355 20.962-21.534 3.1759-5.6895 6.3982-11.596 8.2849-17.842 1.1524-3.8156 1.8233-7.8342 2.2173-11.793 0.15503-1.5588 0.30516-3.1547 0.29606-4.7232-0.0090989-1.556-0.72441-2.3786-1.2385-3.7331 7.1304-2.7319 15.179-3.4764 22.401-0.6454 6.6803 2.6184 12.23 7.6784 15.337 14.035 0.80735 1.6524 1.4299 3.3956 1.8835 5.1735 0.29676 1.1645 0.31111 2.6755 0.86124 3.7282 1.334 2.5523 4.1407 0.84597 3.8712-1.5299-0.75136-6.6277-4.4973-13.282-9.285-17.889-6.0385-5.8113-14.224-9.4732-22.722-9.4732" fill="#89C5CC"/>
</g>
<g transform="translate(116.94 274.7) scale(-1 1) translate(-86.342 -64.225)">
<path d="m100.91 0.48213c-2.5025-0.54452-5.2655-0.50285-7.8146-0.45793-13.671 0.18517-27.095 6.6319-35.832 16.933-7.4377 8.7693-9.4829 19.672-10.952 30.693-0.14568 1.0943-0.20815 2.1816-0.29034 3.2781-0.017666 0.23533-0.044037 0.4452-0.072201 0.64285-0.57786 0.51458-0.881 1.1145-0.53895 1.7736-1.273 2.7748-2.3499 5.6199-3.2739 8.5544-2.7196 8.6375-5.486 17.439-3.7818 26.522 0.39813-4.9983 1.2356-10.109 2.2372-15.026 0.057607-0.28224 0.11982-0.56224 0.1846-0.84124 0.0066568-0.029448 0.012802-0.058895 0.019458-0.088093 0.3546-1.5056 0.81546-2.9659 1.3759-4.4034 0.0058887-0.015722 0.011521-0.031194 0.017666-0.046666 0.073993-0.18916 0.15259-0.37732 0.23017-0.56549 0.16053-0.38955 0.32542-0.77836 0.50029-1.1652 0.059143-0.13176 0.11598-0.26478 0.17052-0.39879 0.81597-1.9919 1.1606-4.2364 1.8916-6.2975 0.17487-0.46866 0.35768-0.93557 0.54919-1.4 0.011266-0.027201 0.022787-0.054402 0.034308-0.081604 0.5177-1.2498 1.0897-2.4843 1.6944-3.7059 0.32874-0.24606 0.50438-0.85647 0.78781-1.4112 0.058631-0.1093 0.51693-0.83825 0.65339-1.2582 0.35614-0.68627 0.711-1.3728 1.0697-2.0578-0.010753 0.0039929-0.021507 0.0079858-0.03226 0.011979 0.35896-0.65782 0.71894-1.3129 1.0761-1.9652 0.078602-0.14324 0.15797-0.28674 0.23709-0.43048 0.12827-0.22884 0.25654-0.45743 0.38456-0.68552 1.1975-2.1344 2.4671-4.2262 3.7857-6.292 0.47059-0.73718 1.5948-1.7943 1.8104-2.6221 0.007937-0.030945 0.0097292-0.059394 0.014594-0.08909 2.8612-4.0026 6.155-7.6945 10.105-10.62-0.4775 0.51408-1.4924 2.2587-1.7607 2.6041-0.82109 1.0576-1.7126 2.0421-2.6074 3.0386-1.6025 1.7851-3.1671 3.6268-4.5574 5.5743-2.5424 3.5616-4.7358 7.3099-6.8092 11.134-0.019714 0.02246-0.041221 0.043672-0.059911 0.066631-1.042 1.2795-1.698 3.2132-2.4482 4.6769 2.9687-1.3695 6.2513-2.2617 9.298-3.4778 3.0383-1.2123 5.994-2.5624 8.8474-4.1478 3.7926-2.107 7.7268-4.486 11.31-7.1781 4.1065-2.5372 7.5573-6.0294 10.603-9.6941 3.6039-4.336 6.9067-8.7099 8.9493-13.975 1.0034-2.5871 1.7927-5.2848 2.2608-8.0139 0.020483-0.11904 0.046598-0.24806 0.075017-0.38207 0.47878-0.94256 0.90686-1.9063 1.2661-2.8923 0.57044-1.5637 1.9177-3.2839-0.6091-3.8334" fill="#69A1AC"/>
<path d="m172.47 63.225c0.55232 1.8212 0.091556 3.4238-2.0876 2.9721-0.65328-0.13538-1.3281-0.35213-1.9735-0.53477-3.5867-1.0149-7.1407-2.1299-10.746-3.0801-6.9353-1.8278-13.973-2.7127-21.079-3.5326-5.5944-0.64543-11.23-1.0344-16.841-0.78654-6.9146 0.30559-13.661 1.65-20.356 3.1972-6.8888 1.5926-13.963 3.5636-20.603 6.1392-7.5524 2.9292-14.514 6.5476-21.421 10.732-17.068 10.339-32.24 23.253-45.511 38.081-1.9102 2.1347-3.8124 4.2769-5.7117 6.4215-1.4309 1.616-2.7796 3.302-4.2007 4.9239-1.1767 1.3432-2.5541 0.57764-1.648-0.99575 1.0401-1.8068 2.8248-3.43 4.1813-4.9964 1.2106-1.3976 2.4226-2.7942 3.6338-4.1913 1.4205-1.6377 2.849-3.2666 4.3066-4.8705 6.7831-7.4627 14.06-14.534 21.732-21.094 5.827-4.9828 12.118-9.3454 18.574-13.496 7.4195-4.7689 15.296-9.7577 23.788-12.581 0.08346-0.12451 0.19058-0.25197 0.31044-0.37965-1.6504-1.4899 3.4132-6.5061 4.3267-7.4845 2.3198-2.4844 4.8713-4.797 7.4861-6.9713 2.1456-1.7841 4.4396-3.3408 6.9513-4.5839 3.7216-1.8416 7.759-2.9381 11.866-3.6483 7.115-1.2301 14.585-1.8966 21.843-1.2936 13.246 1.1005 26.289 5.2 36.804 13.709 2.6922 2.1786 5.3601 4.999 6.3744 8.344z" fill="#C1DEE2"/>
<path d="m67.276 77.193c5.5044 0 10.403 0.71591 15.474 2.9055 4.3779 1.8897 8.3676 4.3914 12.241 7.115 5.4487 3.8305 9.7404 8.2888 12.745 14.196 1.7947 3.5289 3.1113 8.5225 1.906 12.372-1.4198 4.5334-5.3183 8.3143-10.453 7.5155-3.1749-0.49347-6.0855-2.5971-8.4986-4.577-2.8867-2.3686-5.1976-5.2167-7.1056-8.38-3.1125-5.1599-4.9416-10.993-7.5856-16.385-1.2546-2.559-2.4671-5.1363-3.9698-7.5684-0.74393-1.2044-1.5359-2.3972-2.6645-3.2922-0.60379-0.47869-3.1496-1.3073-2.176-2.3824-14.274 0.18762-26.92 11.161-29.66 24.743-0.25522 1.266-0.4547 2.5422-0.66542 3.816-0.13298 0.80433-0.079278 3.7704-0.79764 4.2842-1.5843 1.1335-0.91834-2.3098-0.85032-2.8055 0.17569-1.2813 0.36314-2.5615 0.5598-3.8395 1.07-6.9514 4.1618-13.414 9.318-18.371 5.8962-5.6689 13.852-9.3456 22.182-9.3456z" fill="#89C5CC"/>
</g>
<g transform="translate(144.4 127.67)">
<rect width="322.81" height="217.54" rx="8" fill="#fff"/>
<path d="m5.614 0h311.58c3.1005 0 5.614 2.5135 5.614 5.614v16.486h-322.81v-16.486c0-3.1005 2.5135-5.614 5.614-5.614z" fill="#C5CFD6"/>
<g transform="translate(6.3158 7.0175)" fill="#F2F2F2">
<circle id="buttons" cx="2.807" cy="2.807" r="2.807"/>
<circle id="a" cx="11.228" cy="2.807" r="2.807"/>
<circle cx="19.649" cy="2.807" r="2.807"/>
</g>
<rect x="11.228" y="33.684" width="300.35" height="172.63" rx="10" fill="#F2F2F2"/>
</g>
<g id="&lt;Group&gt;" transform="translate(168.26 173.99)" fill="#C5CFD6" opacity=".5">
<path id="&lt;Path&gt;" d="m15.825 1.7544h-14.947c-0.48446 0-0.87719-0.39273-0.87719-0.87719 0-0.48446 0.39273-0.87719 0.87719-0.87719h14.947c0.48446 0 0.87719 0.39273 0.87719 0.87719 0 0.48446-0.39273 0.87719-0.87719 0.87719z"/>
<path id="&lt;Path&gt;" d="m15.86 7.3684h-15.018c-0.46508 0-0.84211-0.37702-0.84211-0.84211 0-0.46508 0.37702-0.84211 0.84211-0.84211h15.018c0.46508 0 0.84211 0.37702 0.84211 0.84211 0 0.46508-0.37702 0.84211-0.84211 0.84211z"/>
<path id="&lt;Path&gt;" d="m15.86 13.053h-15.018c-0.46508 0-0.84211-0.37702-0.84211-0.84211s0.37702-0.84211 0.84211-0.84211h15.018c0.46508 0 0.84211 0.37702 0.84211 0.84211s-0.37702 0.84211-0.84211 0.84211z"/>
<path id="&lt;Path&gt;" d="m15.86 18.737h-15.018c-0.46508 0-0.84211-0.37702-0.84211-0.84211s0.37702-0.84211 0.84211-0.84211h15.018c0.46508 0 0.84211 0.37702 0.84211 0.84211s-0.37702 0.84211-0.84211 0.84211z"/>
<path id="&lt;Path&gt;" d="m15.86 24.421h-15.018c-0.46508 0-0.84211-0.37702-0.84211-0.84211s0.37702-0.84211 0.84211-0.84211h15.018c0.46508 0 0.84211 0.37702 0.84211 0.84211s-0.37702 0.84211-0.84211 0.84211z"/>
<path id="&lt;Path&gt;" d="m15.825 30.105h-14.947c-0.48446 0-0.87719-0.39273-0.87719-0.87719 0-0.48446 0.39273-0.87719 0.87719-0.87719h14.947c0.48446 0 0.87719 0.39273 0.87719 0.87719 0 0.48446-0.39273 0.87719-0.87719 0.87719z"/>
<path id="&lt;Path&gt;" d="m15.825 35.789h-14.947c-0.48446 0-0.87719-0.39273-0.87719-0.87719s0.39273-0.87719 0.87719-0.87719h14.947c0.48446 0 0.87719 0.39273 0.87719 0.87719s-0.39273 0.87719-0.87719 0.87719z"/>
<path id="&lt;Path&gt;" d="m15.825 41.474h-14.947c-0.48446 0-0.87719-0.39273-0.87719-0.87719s0.39273-0.87719 0.87719-0.87719h14.947c0.48446 0 0.87719 0.39273 0.87719 0.87719s-0.39273 0.87719-0.87719 0.87719z"/>
<path id="&lt;Path&gt;" d="m15.825 47.158h-14.947c-0.48446 0-0.87719-0.39273-0.87719-0.87719 0-0.48446 0.39273-0.87719 0.87719-0.87719h14.947c0.48446 0 0.87719 0.39273 0.87719 0.87719 0 0.48446-0.39273 0.87719-0.87719 0.87719z"/>
<path id="&lt;Path&gt;" d="m15.825 52.842h-14.947c-0.48446 0-0.87719-0.39273-0.87719-0.87719 0-0.48446 0.39273-0.87719 0.87719-0.87719h14.947c0.48446 0 0.87719 0.39273 0.87719 0.87719 0 0.48446-0.39273 0.87719-0.87719 0.87719z"/>
<path id="&lt;Path&gt;" d="m15.86 58.456h-15.018c-0.46508 0-0.84211-0.37702-0.84211-0.84211s0.37702-0.84211 0.84211-0.84211h15.018c0.46508 0 0.84211 0.37702 0.84211 0.84211s-0.37702 0.84211-0.84211 0.84211z"/>
<path id="&lt;Path&gt;" d="m15.86 64.14h-15.018c-0.46508 0-0.84211-0.37702-0.84211-0.84211s0.37702-0.84211 0.84211-0.84211h15.018c0.46508 0 0.84211 0.37702 0.84211 0.84211s-0.37702 0.84211-0.84211 0.84211z"/>
<path id="&lt;Path&gt;" d="m15.86 69.825h-15.018c-0.46508 0-0.84211-0.37702-0.84211-0.84211s0.37702-0.84211 0.84211-0.84211h15.018c0.46508 0 0.84211 0.37702 0.84211 0.84211s-0.37702 0.84211-0.84211 0.84211z"/>
<path id="&lt;Path&gt;" d="m15.86 75.509h-15.018c-0.46508 0-0.84211-0.37702-0.84211-0.84211 0-0.46508 0.37702-0.84211 0.84211-0.84211h15.018c0.46508 0 0.84211 0.37702 0.84211 0.84211 0 0.46508-0.37702 0.84211-0.84211 0.84211z"/>
<path id="&lt;Path&gt;" d="m15.825 81.193h-14.947c-0.48446 0-0.87719-0.39273-0.87719-0.87719 0-0.48446 0.39273-0.87719 0.87719-0.87719h14.947c0.48446 0 0.87719 0.39273 0.87719 0.87719 0 0.48446-0.39273 0.87719-0.87719 0.87719z"/>
<path id="&lt;Path&gt;" d="m15.825 86.877h-14.947c-0.48446 0-0.87719-0.39273-0.87719-0.87719 0-0.48446 0.39273-0.87719 0.87719-0.87719h14.947c0.48446 0 0.87719 0.39273 0.87719 0.87719 0 0.48446-0.39273 0.87719-0.87719 0.87719z"/>
<path id="&lt;Path&gt;" d="m15.825 92.561h-14.947c-0.48446 0-0.87719-0.39273-0.87719-0.87719 0-0.48446 0.39273-0.87719 0.87719-0.87719h14.947c0.48446 0 0.87719 0.39273 0.87719 0.87719 0 0.48446-0.39273 0.87719-0.87719 0.87719z"/>
<path id="&lt;Path&gt;" d="m15.825 98.246h-14.947c-0.48446 0-0.87719-0.39273-0.87719-0.87719 0-0.48446 0.39273-0.87719 0.87719-0.87719h14.947c0.48446 0 0.87719 0.39273 0.87719 0.87719 0 0.48446-0.39273 0.87719-0.87719 0.87719z"/>
<path id="&lt;Path&gt;" d="m15.825 103.93h-14.947c-0.48446 0-0.87719-0.39273-0.87719-0.87719 0-0.48446 0.39273-0.87719 0.87719-0.87719h14.947c0.48446 0 0.87719 0.39273 0.87719 0.87719 0 0.48446-0.39273 0.87719-0.87719 0.87719z"/>
<path id="&lt;Path&gt;" d="m15.86 109.54h-15.018c-0.46508 0-0.84211-0.37702-0.84211-0.84211s0.37702-0.8421 0.84211-0.8421h15.018c0.46508 0 0.84211 0.37702 0.84211 0.8421s-0.37702 0.84211-0.84211 0.84211z"/>
<path id="&lt;Path&gt;" d="m15.86 115.23h-15.018c-0.46508 0-0.84211-0.37702-0.84211-0.8421s0.37702-0.8421 0.84211-0.8421h15.018c0.46508 0 0.84211 0.37702 0.84211 0.8421s-0.37702 0.8421-0.84211 0.8421z"/>
<path id="&lt;Path&gt;" d="m15.86 120.91h-15.018c-0.46508 0-0.84211-0.37702-0.84211-0.84211 0-0.46508 0.37702-0.8421 0.84211-0.8421h15.018c0.46508 0 0.84211 0.37702 0.84211 0.8421 0 0.46508-0.37702 0.84211-0.84211 0.84211z"/>
<path id="&lt;Path&gt;" d="m15.86 126.6h-15.018c-0.46508 0-0.84211-0.37702-0.84211-0.8421s0.37702-0.8421 0.84211-0.8421h15.018c0.46508 0 0.84211 0.37702 0.84211 0.8421s-0.37702 0.8421-0.84211 0.8421z"/>
<path id="&lt;Path&gt;" d="m15.825 132.28h-14.947c-0.48446 0-0.87719-0.39273-0.87719-0.87719 0-0.48446 0.39273-0.87719 0.87719-0.87719h14.947c0.48446 0 0.87719 0.39273 0.87719 0.87719 0 0.48446-0.39273 0.87719-0.87719 0.87719z"/>
<path id="&lt;Path&gt;" d="m15.825 137.96h-14.947c-0.48446 0-0.87719-0.39273-0.87719-0.87719 0-0.48446 0.39273-0.87719 0.87719-0.87719h14.947c0.48446 0 0.87719 0.39273 0.87719 0.87719 0 0.48446-0.39273 0.87719-0.87719 0.87719z"/>
<path id="&lt;Path&gt;" d="m15.825 143.65h-14.947c-0.48446 0-0.87719-0.39273-0.87719-0.87719 0-0.48446 0.39273-0.87719 0.87719-0.87719h14.947c0.48446 0 0.87719 0.39273 0.87719 0.87719 0 0.48446-0.39273 0.87719-0.87719 0.87719z"/>
</g>
<g id="&lt;Group&gt;" transform="translate(194.3 173.99)" opacity=".51904">
<g id="&lt;Path&gt;" transform="translate(30.877 37.684)" fill="#22B573">
<path id="路径" d="m39.333 3.7193h-37.474c-1.0271 0-1.8596-0.83259-1.8596-1.8596s0.83259-1.8596 1.8596-1.8596h37.474c1.0271 0 1.8596 0.83259 1.8596 1.8596s-0.83259 1.8596-1.8596 1.8596z"/>
<path id="路径" d="m86.772 3.7193h-37.474c-1.0271 0-1.8596-0.83259-1.8596-1.8596s0.83259-1.8596 1.8596-1.8596h37.474c1.0271 0 1.8596 0.83259 1.8596 1.8596s-0.83259 1.8596-1.8596 1.8596z"/>
<path id="路径" d="m134.21 3.7193h-37.474c-1.0271 0-1.8596-0.83259-1.8596-1.8596s0.83259-1.8596 1.8596-1.8596h37.474c1.0271 0 1.8596 0.83259 1.8596 1.8596s-0.83259 1.8596-1.8596 1.8596z"/>
</g>
<g id="&lt;Path&gt;" transform="translate(30.877 12.561)">
<path id="路径" d="m39.368 3.6491h-37.544c-1.0077 0-1.8246-0.81688-1.8246-1.8246 0-1.0077 0.81688-1.8246 1.8246-1.8246h37.544c1.0077 0 1.8246 0.81688 1.8246 1.8246 0 1.0077-0.81688 1.8246-1.8246 1.8246z" fill="#F7931E"/>
<path id="路径" d="m86.807 3.6491h-37.544c-1.0077 0-1.8246-0.81688-1.8246-1.8246 0-1.0077 0.81688-1.8246 1.8246-1.8246h37.544c1.0077 0 1.8246 0.81688 1.8246 1.8246 0 1.0077-0.81688 1.8246-1.8246 1.8246z" fill="#fff"/>
<path id="路径" d="m164.14 3.6491h-67.439c-1.0077 0-1.8246-0.81688-1.8246-1.8246 0-1.0077 0.81688-1.8246 1.8246-1.8246h67.439c1.0077 0 1.8246 0.81688 1.8246 1.8246 0 1.0077-0.81688 1.8246-1.8246 1.8246z" fill="#02B3F3"/>
</g>
<g id="&lt;Path&gt;">
<path id="路径" d="m44.772 3.6491h-42.947c-1.0077 0-1.8246-0.81688-1.8246-1.8246 0-1.0077 0.81688-1.8246 1.8246-1.8246h42.947c1.0077 0 1.8246 0.81688 1.8246 1.8246 0 1.0077-0.81688 1.8246-1.8246 1.8246z" fill="#FF9B21"/>
<path id="路径" d="m229.96 3.6491h-20.702c-1.0077 0-1.8246-0.81688-1.8246-1.8246 0-1.0077 0.81688-1.8246 1.8246-1.8246h20.702c1.0077 0 1.8246 0.81688 1.8246 1.8246 0 1.0077-0.81688 1.8246-1.8246 1.8246z" fill="#02B3F3"/>
<path id="路径" d="m122.11 3.6491h-67.439c-1.0077 0-1.8246-0.81688-1.8246-1.8246 0-1.0077 0.81688-1.8246 1.8246-1.8246h67.439c1.0077 0 1.8246 0.81688 1.8246 1.8246 0 1.0077-0.81688 1.8246-1.8246 1.8246z" fill="#fff"/>
<path id="路径" d="m199.44 3.6491h-67.439c-1.0077 0-1.8246-0.81688-1.8246-1.8246 0-1.0077 0.81688-1.8246 1.8246-1.8246h67.439c1.0077 0 1.8246 0.81688 1.8246 1.8246 0 1.0077-0.81688 1.8246-1.8246 1.8246z" fill="#fff"/>
</g>
<g id="&lt;Path&gt;" transform="translate(30.877 25.123)">
<polygon id="路径" points="196.56 3.7193 155.3 3.7193 155.3 0 196.56 0" fill="#fff"/>
<path id="路径" d="m39.333 3.7193h-37.474c-1.0271 0-1.8596-0.83259-1.8596-1.8596s0.83259-1.8596 1.8596-1.8596h37.474c1.0271 0 1.8596 0.83259 1.8596 1.8596s-0.83259 1.8596-1.8596 1.8596z" fill="#F7931E"/>
<path id="路径" d="m69.93 3.7193h-20.632c-1.0271 0-1.8596-0.83259-1.8596-1.8596s0.83259-1.8596 1.8596-1.8596h20.632c1.0271 0 1.8596 0.83259 1.8596 1.8596s-0.83259 1.8596-1.8596 1.8596z" fill="#fff"/>
<path id="路径" d="m147.26 3.7193h-67.368c-1.0271 0-1.8596-0.83259-1.8596-1.8596s0.83259-1.8596 1.8596-1.8596h67.368c1.0271 0 1.8596 0.83259 1.8596 1.8596s-0.83259 1.8596-1.8596 1.8596z" fill="#02B3F3"/>
</g>
<g id="&lt;Path&gt;" transform="translate(30.877 50.316)">
<path id="路径" d="m9.9649 3.6491h-8.1404c-1.0077 0-1.8246-0.81688-1.8246-1.8246 0-1.0077 0.81688-1.8246 1.8246-1.8246h8.1404c1.0077 0 1.8246 0.81688 1.8246 1.8246 0 1.0077-0.81688 1.8246-1.8246 1.8246z" fill="#F7931E"/>
<path id="路径" d="m57.404 3.6491h-37.544c-1.0077 0-1.8246-0.81688-1.8246-1.8246 0-1.0077 0.81688-1.8246 1.8246-1.8246h37.544c1.0077 0 1.8246 0.81688 1.8246 1.8246 0 1.0077-0.81688 1.8246-1.8246 1.8246z" fill="#02B3F3"/>
<path id="路径" d="m88 3.6491h-20.702c-1.0077 0-1.8246-0.81688-1.8246-1.8246 0-1.0077 0.81688-1.8246 1.8246-1.8246h20.702c1.0077 0 1.8246 0.81688 1.8246 1.8246 0 1.0077-0.81688 1.8246-1.8246 1.8246z" fill="#22B573"/>
<path id="路径" d="m165.26 3.6491h-67.439c-1.0077 0-1.8246-0.81688-1.8246-1.8246 0-1.0077 0.81688-1.8246 1.8246-1.8246h67.439c1.0077 0 1.8246 0.81688 1.8246 1.8246 0 1.0077-0.81688 1.8246-1.8246 1.8246z" fill="#ED1C24"/>
</g>
<g id="&lt;Path&gt;" transform="translate(64.351 88)">
<path id="路径" d="m69.895 3.6491h-37.544c-1.0077 0-1.8246-0.81688-1.8246-1.8246 0-1.0077 0.81688-1.8246 1.8246-1.8246h37.544c1.0077 0 1.8246 0.81688 1.8246 1.8246 0 1.0077-0.81688 1.8246-1.8246 1.8246z" fill="#ED1C24"/>
<path id="路径" d="m117.33 3.6491h-37.544c-1.0077 0-1.8246-0.81688-1.8246-1.8246 0-1.0077 0.81688-1.8246 1.8246-1.8246h37.544c1.0077 0 1.8246 0.81688 1.8246 1.8246 0 1.0077-0.81688 1.8246-1.8246 1.8246z" fill="#fff"/>
<path id="路径" d="m22.456 3.6491h-20.632c-1.0077 0-1.8246-0.81688-1.8246-1.8246 0-1.0077 0.81688-1.8246 1.8246-1.8246h20.632c1.0077 0 1.8246 0.81688 1.8246 1.8246 0 1.0077-0.81688 1.8246-1.8246 1.8246z" fill="#F7931E"/>
</g>
<g id="&lt;Path&gt;" transform="translate(47.789 62.877)">
<path id="路径" d="m39.368 3.6491h-37.544c-1.0077 0-1.8246-0.81688-1.8246-1.8246 0-1.0077 0.81688-1.8246 1.8246-1.8246h37.544c1.0077 0 1.8246 0.81688 1.8246 1.8246 0 1.0077-0.81688 1.8246-1.8246 1.8246z" fill="#F7931E"/>
<path id="路径" d="m86.807 3.6491h-37.544c-1.0077 0-1.8246-0.81688-1.8246-1.8246 0-1.0077 0.81688-1.8246 1.8246-1.8246h37.544c1.0077 0 1.8246 0.81688 1.8246 1.8246 0 1.0077-0.81688 1.8246-1.8246 1.8246z" fill="#fff"/>
<path id="路径" d="m164.14 3.6491h-67.439c-1.0077 0-1.8246-0.81688-1.8246-1.8246 0-1.0077 0.81688-1.8246 1.8246-1.8246h67.439c1.0077 0 1.8246 0.81688 1.8246 1.8246 0 1.0077-0.81688 1.8246-1.8246 1.8246z" fill="#02B3F3"/>
</g>
<g id="&lt;Path&gt;" transform="translate(47.789 75.439)">
<path id="路径" d="m194.67 3.6491h-37.544c-1.0077 0-1.8246-0.81688-1.8246-1.8246 0-1.0077 0.81688-1.8246 1.8246-1.8246h37.544c1.0077 0 1.8246 0.81688 1.8246 1.8246 0 1.0077-0.81688 1.8246-1.8246 1.8246z" fill="#fff"/>
<path id="路径" d="m39.368 3.6491h-37.544c-1.0077 0-1.8246-0.81688-1.8246-1.8246 0-1.0077 0.81688-1.8246 1.8246-1.8246h37.544c1.0077 0 1.8246 0.81688 1.8246 1.8246 0 1.0077-0.81688 1.8246-1.8246 1.8246z" fill="#F7931E"/>
<path id="路径" d="m69.965 3.6491h-20.702c-1.0077 0-1.8246-0.81688-1.8246-1.8246 0-1.0077 0.81688-1.8246 1.8246-1.8246h20.702c1.0077 0 1.8246 0.81688 1.8246 1.8246 0 1.0077-0.81688 1.8246-1.8246 1.8246z" fill="#fff"/>
<path id="路径" d="m147.23 3.6491h-67.439c-1.0077 0-1.8246-0.81688-1.8246-1.8246 0-1.0077 0.81688-1.8246 1.8246-1.8246h67.439c1.0077 0 1.8246 0.81688 1.8246 1.8246 0 1.0077-0.81688 1.8246-1.8246 1.8246z" fill="#02B3F3"/>
</g>
</g>
<g id="i" transform="translate(212.97 274.55)" opacity=".5">
<g id="&lt;Path&gt;" transform="translate(30.877 37.684)" fill="#22B573">
<path id="路径" d="m39.404 3.7193h-37.544c-1.0271 0-1.8596-0.83259-1.8596-1.8596s0.83259-1.8596 1.8596-1.8596h37.544c1.0271 0 1.8596 0.83259 1.8596 1.8596s-0.83259 1.8596-1.8596 1.8596z"/>
<path id="路径" d="m86.842 3.7193h-37.544c-1.0271 0-1.8596-0.83259-1.8596-1.8596s0.83259-1.8596 1.8596-1.8596h37.544c1.0271 0 1.8596 0.83259 1.8596 1.8596s-0.83259 1.8596-1.8596 1.8596z"/>
<path id="路径" d="m134.28 3.7193h-37.544c-1.0271 0-1.8596-0.83259-1.8596-1.8596s0.83259-1.8596 1.8596-1.8596h37.544c1.0271 0 1.8596 0.83259 1.8596 1.8596s-0.83259 1.8596-1.8596 1.8596z"/>
</g>
<g id="&lt;Path&gt;" transform="translate(30.877 12.561)">
<path id="路径" d="m39.439 3.6491h-37.614c-1.0077 0-1.8246-0.81688-1.8246-1.8246 0-1.0077 0.81688-1.8246 1.8246-1.8246h37.614c1.0077 0 1.8246 0.81688 1.8246 1.8246 0 1.0077-0.81688 1.8246-1.8246 1.8246z" fill="#F7931E"/>
<path id="路径" d="m86.877 3.6491h-37.614c-1.0077 0-1.8246-0.81688-1.8246-1.8246 0-1.0077 0.81688-1.8246 1.8246-1.8246h37.614c1.0077 0 1.8246 0.81688 1.8246 1.8246 0 1.0077-0.81688 1.8246-1.8246 1.8246z" fill="#fff"/>
<path id="路径" d="m164.14 3.6491h-67.439c-1.0077 0-1.8246-0.81688-1.8246-1.8246 0-1.0077 0.81688-1.8246 1.8246-1.8246h67.439c1.0077 0 1.8246 0.81688 1.8246 1.8246 0 1.0077-0.81688 1.8246-1.8246 1.8246z" fill="#02B3F3"/>
</g>
<g id="&lt;Path&gt;">
<path id="路径" d="m44.772 3.6491h-42.947c-1.0077 0-1.8246-0.81688-1.8246-1.8246 0-1.0077 0.81688-1.8246 1.8246-1.8246h42.947c1.0077 0 1.8246 0.81688 1.8246 1.8246 0 1.0077-0.81688 1.8246-1.8246 1.8246z" fill="#F7931E"/>
<path id="路径" d="m229.96 3.6491h-20.632c-1.0077 0-1.8246-0.81688-1.8246-1.8246 0-1.0077 0.81688-1.8246 1.8246-1.8246h20.632c1.0077 0 1.8246 0.81688 1.8246 1.8246 0 1.0077-0.81688 1.8246-1.8246 1.8246z" fill="#02B3F3"/>
<path id="路径" d="m122.11 3.6491h-67.439c-1.0077 0-1.8246-0.81688-1.8246-1.8246 0-1.0077 0.81688-1.8246 1.8246-1.8246h67.439c1.0077 0 1.8246 0.81688 1.8246 1.8246 0 1.0077-0.81688 1.8246-1.8246 1.8246z" fill="#fff"/>
<path id="路径" d="m199.44 3.6491h-67.439c-1.0077 0-1.8246-0.81688-1.8246-1.8246 0-1.0077 0.81688-1.8246 1.8246-1.8246h67.439c1.0077 0 1.8246 0.81688 1.8246 1.8246 0 1.0077-0.81688 1.8246-1.8246 1.8246z" fill="#fff"/>
</g>
<g id="&lt;Path&gt;" transform="translate(30.877 25.123)">
<path id="路径" d="m194.7 3.7193h-37.474c-1.0271 0-1.8596-0.83259-1.8596-1.8596s0.83259-1.8596 1.8596-1.8596h37.474c1.0271 0 1.8596 0.83259 1.8596 1.8596s-0.83259 1.8596-1.8596 1.8596z" fill="#fff"/>
<path id="路径" d="m39.404 3.7193h-37.544c-1.0271 0-1.8596-0.83259-1.8596-1.8596s0.83259-1.8596 1.8596-1.8596h37.544c1.0271 0 1.8596 0.83259 1.8596 1.8596s-0.83259 1.8596-1.8596 1.8596z" fill="#F7931E"/>
<path id="路径" d="m69.93 3.7193h-20.632c-1.0271 0-1.8596-0.83259-1.8596-1.8596s0.83259-1.8596 1.8596-1.8596h20.632c1.0271 0 1.8596 0.83259 1.8596 1.8596s-0.83259 1.8596-1.8596 1.8596z" fill="#fff"/>
<path id="路径" d="m147.26 3.7193h-67.368c-1.0271 0-1.8596-0.83259-1.8596-1.8596s0.83259-1.8596 1.8596-1.8596h67.368c1.0271 0 1.8596 0.83259 1.8596 1.8596s-0.83259 1.8596-1.8596 1.8596z" fill="#02B3F3"/>
</g>
</g>
<g transform="translate(285.46 232.23)">
<path id="&lt;Path&gt;" d="m105.32 112.09c39.649 4.9825 37.825 14.456 37.825 14.456s-6.6667 5.7544-31.368 15.088c-24.632 9.3333-111.37-14.105-109.26-22.316 2.0351-8.2105 52.211-10.035 52.211-10.035s11.018-2.2456 50.596 2.807z" fill="#2C3D73"/>
<g id="&lt;Path&gt;" transform="translate(24.034 43.25)" fill="#D4A181">
<path id="路径" d="m65.634 80.632 18.456-16.211s-8.3509-27.368-11.088-20.912c-2.807 6.4561-8.1404 28.14-8.1404 28.14h-16.14-0.14035-16.14s-5.3333-21.684-8.0702-28.14c-2.807-6.4561-11.088 20.912-11.088 20.912l19.719 15.86-2.6667 6.6667s-27.93-9.1228-30.035-16.14c-2.1754-7.0175 8-56.842 13.404-61.684 5.193-4.6316 33.123-8.8421 34.877-9.1228h0.070175 0.070176c1.7544 0.2807 29.684 4.4912 34.877 9.1228 5.4035 4.8421 15.579 54.667 13.474 61.684-2.1754 7.0175-30.105 16.14-30.105 16.14l-1.3333-6.3158z"/>
</g>
<g id="&lt;Path&gt;" transform="translate(34.386 99.649)" fill="#fff">
<polygon id="路径" points="0 -1.9536e-22 38.246 -1.9536e-22 76.491 -1.9536e-22 65.754 30.596 38.246 30.596 10.737 30.596"/>
</g>
<g id="&lt;Path&gt;" transform="translate(68.475 31.882)" fill="#FEA086">
<path id="路径" d="m-1.9536e-22 12.912v-12.912h8.4912v12.912c-4.1404 4.1404-8.4912 0-8.4912 0z"/>
</g>
<g id="&lt;Path&gt;" transform="translate(69.948 28.513)" fill="#FEA086">
<path id="路径" d="m2.807 2.7503e-23c1.4737 0 2.7368 0.5614 2.7368 1.3333 0 0.70175-1.2632 1.2632-2.7368 1.2632-1.5439 0-2.807-0.5614-2.807-1.2632 0-0.77193 1.2632-1.3333 2.807-1.3333z"/>
</g>
<path id="&lt;Path&gt;" d="m59.422 132.23c1.614 0.70176 26.947 13.053 26.877 13.193 0 0-4.702 5.193-4.702 5.193-1.4737 1.614-19.368-0.070175-22.246-0.21053-9.4737-0.2807-19.088-0.91228-28.351-2.7368-8.1404-1.614-16.702-4-22.877-8.9123-1.4737-1.193-3.1579-2.9474-4.5614-4.9825-3.3684-4.7719-5.4737-10.877-1.0526-14.456 1.193-1.0526 2.8772-1.5439 4.6316-1.8246 16.351-2.6667 38.456 8.6316 52.281 14.737z" fill="#2C4584"/>
<path id="&lt;Path&gt;" d="m108.12 154.34c1.4035 6.5263-16.982 1.6842-20.561-0.70175l2.1053-6.5263 2.5965 1.3333s14.526-0.5614 15.86 5.8947z" fill="#2C4584"/>
<path id="&lt;Path&gt;" d="m140.69 122.34c4.4211 3.5789 2.3158 9.6842-1.0526 14.456-1.4035 2.0351-3.0877 3.7895-4.5614 4.9825-6.1754 4.9123-14.737 7.3684-22.877 8.9123-9.2632 1.8246-18.877 2.4561-28.351 2.807-2.8772 0.070176-20.772 1.8246-22.246 0.14035 0 0-4.702-5.193-4.702-5.193-0.069885-0.14035 25.263-12.491 26.877-13.193 13.825-6.1053 35.93-17.404 52.281-14.737 1.7544 0.2807 3.4386 0.8421 4.6316 1.8246z" fill="#2C4584"/>
<path id="f" d="m56.896 148.44 2.5965-1.3333 2.1053 6.5263c-3.5789 2.386-21.965 7.2281-20.561 0.70175 1.3333-6.4561 15.86-5.8947 15.86-5.8947z" fill="#2C4584"/>
<g transform="translate(57.776)">
<path id="路径" d="m0.59342 20.864c-0.84211-7.5088-0.84211-16.211 0.35088-17.614 3.2281-3.6491 21.263-4.2807 23.579-1.614 1.3333 1.5439 3.5789 17.825 1.193 19.509-2.386 1.614-25.123-0.2807-25.123-0.2807z" fill="#232850"/>
<path id="路径" d="m22.278 26.127c0.14035 4.5614 3.7193 17.263 4 18.456 0.2807 1.193-8.0702 6.5263-11.439 6.7368-3.4386 0.21053-9.4737-2.6667-11.439-4.4211-1.8947-1.8246 3.5088-8.0702 1.2632-17.333 0 0 17.544-8 17.614-3.4386z" fill="#F6A087"/>
<path id="c" d="m0.73377 22.969c-0.35088-1.0526-0.91228-3.0877-0.5614-4.2807s1.1228-1.4737 2.5263-0.91228c0-0.98246 0.2807-9.614 2.0351-9.9649 1.4035-0.35088 4.3509 3.0877 8.2105 2.6667 2.3158-0.21053 5.0526-3.7193 7.3684-3.5789 2.2456 0.14035 4.0702 9.4737 4.0702 9.4737s0.98246-0.84211 1.8947-0.5614c0.91228 0.2807 0.84211 5.8947-0.14035 6.9474-0.91228 1.1228-1.1228 0.2807-1.8947-0.42105 0.77193 5.6842-4.3509 9.5439-10.386 9.0526-3.5789-0.35088-9.8947 1.1228-10.596-6.8772 0 0-1.4737 1.614-2.5263-1.5439z" fill="#F5B58F"/>
<path d="m2.839 12.303c0.14035 3.2281 0.77193 13.123 1.0526 14.596 0.35088 1.4737 18.667 0.2807 18.947-0.70175 0.35088-0.98246 0.070175-15.719 0.070175-15.719l1.614 3.6491s0.2807 14.386-0.21053 16.702c-0.49123 2.3158-4.1404 7.1579-10.316 7.5789-4.7719 0.2807-10.526-4.3509-11.018-6.9474-0.42105-2.5263-0.70175-10.105-0.84211-13.684 0 0-0.35088-7.0175 0.70175-5.4737z" fill="#232850"/>
</g>
</g>
<circle cx="358.09" cy="346.97" r="4.5614" fill="#DDE3E9"/>
</g>
</g>
</svg>
