<svg width="32" height="28" viewBox="0 0 32 28" fill="none" xmlns="http://www.w3.org/2000/svg">
<g clip-path="url(#clip0_469_1083)">
<path d="M25.6856 3.67643H22.9136L20.7422 5.29163e-06H23.8873C24.0753 -0.000583407 24.2601 0.0479575 24.4237 0.140848C24.5872 0.233738 24.7238 0.367774 24.8201 0.529755L26.1781 2.80787C26.2293 2.89523 26.2566 2.99458 26.2573 3.0959C26.258 3.19722 26.232 3.29694 26.1821 3.38501C26.1322 3.47308 26.06 3.54638 25.9728 3.59755C25.8857 3.64871 25.7866 3.67592 25.6856 3.67643Z" fill="#F90000"/>
<path d="M31.6959 11.808L28.2355 6.52547C28.0673 6.26848 27.8381 6.05747 27.5685 5.91142C27.2989 5.76536 26.9973 5.68884 26.6909 5.68873L21.2718 5.72617L23.1708 9.40073H25.6929L26.7208 10.9713H16.388L11.9482 3.712H21.5236L19.3317 2.97155e-06H8.64451C8.31539 -0.000588062 7.99209 0.0869972 7.70798 0.253713C7.42388 0.420428 7.18928 0.660228 7.02841 0.948346C6.86755 1.23646 6.78625 1.56245 6.79292 1.89264C6.79958 2.22283 6.89397 2.54524 7.06634 2.82658L13.2447 12.9162L8.56243 22.1896L3.97155 13.942L5.42847 11.3587L3.23283 7.71601L0.248102 13.021C0.0921749 13.2987 0.0102539 13.612 0.0102539 13.9307C0.0102539 14.2495 0.0921749 14.5628 0.248102 14.8405L7.04209 27.0472C7.04209 27.0603 7.05514 27.0697 7.06074 27.0809L7.08126 27.1146L7.08872 27.1427L7.1223 27.1932L7.15588 27.2438L7.19319 27.2924L7.23236 27.3392L7.26967 27.3841C7.28303 27.4 7.29736 27.415 7.31258 27.4291C7.32529 27.4443 7.339 27.4587 7.35362 27.4721L7.39839 27.5152L7.44129 27.5526L7.48793 27.5938L7.5327 27.6294L7.58493 27.6649L7.6297 27.6986L7.6838 27.7323L7.7323 27.7604L7.78827 27.7904L7.83677 27.8166L7.8946 27.8446L7.94497 27.8652L8.00652 27.8896L8.05689 27.9083L8.12032 27.927L8.17255 27.9438L8.23784 27.9588L8.28821 27.9701L8.3591 27.9832H8.4076H8.48595H8.52885C8.56803 27.9832 8.6072 27.9832 8.64824 27.9832H24.596C24.944 27.9832 25.285 27.8847 25.5797 27.6989C25.8744 27.5131 26.1108 27.2477 26.2619 26.933L29.1197 20.9841C29.2571 20.6988 29.3194 20.3829 29.3006 20.0666C29.2818 19.7502 29.1825 19.444 29.0123 19.1771C28.8421 18.9102 28.6066 18.6915 28.3282 18.5418C28.0498 18.3922 27.7379 18.3166 27.4222 18.3222L22.8798 18.3859L20.9808 22.1297L24.4822 22.0792L23.4208 24.2899H11.6516L16.4906 14.6833H30.1513C30.4853 14.684 30.8133 14.5938 31.1003 14.4223C31.3873 14.2508 31.6225 14.0045 31.781 13.7094C31.9395 13.4144 32.0153 13.0817 32.0003 12.7469C31.9853 12.4121 31.8801 12.0876 31.6959 11.808Z" fill="#168BF7"/>
</g>
<defs>
<clipPath id="clip0_469_1083">
<rect width="32" height="28" fill="white"/>
</clipPath>
</defs>
</svg>
