<svg xmlns="http://www.w3.org/2000/svg" xmlns:xlink="http://www.w3.org/1999/xlink" viewBox="0 0 171.54 149.58"><defs><style>.a{fill:#d30000;}.b{fill:url(#a);}</style><linearGradient id="a" x1="118.53" y1="15.4" x2="49.51" y2="148.1" gradientUnits="userSpaceOnUse"><stop offset="0.39" stop-color="#0089d4"/><stop offset="0.51" stop-color="#0078cd"/><stop offset="0.7" stop-color="#0063c4"/><stop offset="0.83" stop-color="#005cc1"/></linearGradient></defs><path class="a" d="M137.69,19.64H122.83L111.19,0h16.86a5.8,5.8,0,0,1,5,2.83L140.33,15A3.08,3.08,0,0,1,137.69,19.64Z"/><path class="b" d="M169.91,63.08,151.36,34.86a9.91,9.91,0,0,0-8.28-4.47l-29.05.2,10.18,19.63h13.52l5.51,8.39H87.85L64.05,19.83h51.33L103.63,0H46.34a9.91,9.91,0,0,0-8.46,15.1L71,69,45.9,118.54,21.29,74.48l7.81-13.8L17.33,41.22l-16,28.34a9.9,9.9,0,0,0,0,9.72l36.42,65.21c0,.07.07.12.1.18l.11.18L38,145l.18.27.18.27.2.26.21.25.2.24a2.66,2.66,0,0,0,.23.24,2.39,2.39,0,0,0,.22.23l.24.23.23.2.25.22.24.19.28.19.24.18.29.18.26.15.3.16.26.14.31.15.27.11.33.13.27.1.34.1.28.09.35.08.27.06.38.07.26,0,.42,0,.23,0c.21,0,.42,0,.64,0h85.49a9.91,9.91,0,0,0,8.93-5.61L156.1,112.1A9.91,9.91,0,0,0,147,97.88l-24.35.34-10.18,20,18.77-.27-5.69,11.81H62.46L88.4,78.44h73.23a9.9,9.9,0,0,0,8.28-15.36Z"/></svg>